<?xml version="1.0" encoding="UTF-8" standalone="no"?>
<svg
   version="1.1"
   viewBox="0 0 335 651"
   id="svg954"
   sodipodi:docname="Zirkel Light.svg"
   inkscape:export-filename="Zirkel Light logo.png"
   inkscape:export-xdpi="96"
   inkscape:export-ydpi="96"
   inkscape:version="1.4.2 (ebf0e94, 2025-05-08)"
   width="335"
   height="651"
   xmlns:inkscape="http://www.inkscape.org/namespaces/inkscape"
   xmlns:sodipodi="http://sodipodi.sourceforge.net/DTD/sodipodi-0.dtd"
   xmlns="http://www.w3.org/2000/svg"
   xmlns:svg="http://www.w3.org/2000/svg">
  <defs
     id="defs954" />
  <sodipodi:namedview
     id="namedview954"
     pagecolor="#000000"
     bordercolor="#000000"
     borderopacity="0.25"
     inkscape:showpageshadow="2"
     inkscape:pageopacity="0.0"
     inkscape:pagecheckerboard="0"
     inkscape:deskcolor="#d1d1d1"
     inkscape:zoom="0.9"
     inkscape:cx="228.33333"
     inkscape:cy="351.11111"
     inkscape:window-width="1523"
     inkscape:window-height="991"
     inkscape:window-x="26"
     inkscape:window-y="23"
     inkscape:window-maximized="0"
     inkscape:current-layer="g718" />
  <g
     fill="#fbfbfb"
     id="g718">
    <g
       id="g1"
       transform="matrix(1.1666109,0,0,1.1666109,-89.062442,-65.52025)"
       style="stroke:#ffffff;stroke-opacity:1;fill:#ffffff;fill-opacity:1;stroke-width:0.08571838;stroke-dasharray:none;stroke-linejoin:round">
      <path
         d="m 247.82,145.56 q -0.36,1.06 1.37,2.04 1.33,0.75 3.16,2.3 0.45,0.38 1,0.46 a 0.76,0.73 -19.6 0 1 0.4,0.18 l 5.17,4.48 q 6.51,6.41 9.97,13.09 6.74,13.06 3.89,28.19 -1.22,6.42 -5.3,12.64 -4.18,6.36 -8.9,10.6 a 1.66,1.65 -30 0 0 -0.47,1.74 l 30.23,92.64 a 1.35,1.34 81.4 0 0 1.25,0.93 l 30.56,0.77 a 1.21,1.2 17.9 0 0 1.03,-0.52 l 1.1,-1.57 a 1.25,1.24 15.6 0 1 0.93,-0.52 q 6.06,-0.37 8.92,1.31 5.62,3.3 2.79,9.54 a 2.34,2.31 82.1 0 1 -0.59,0.79 q -3.17,2.73 -7.82,2.66 -1.52,-0.02 -4.86,-1.36 -2.55,-1.02 -6.31,-1.05 -11.42,-0.09 -19.58,-0.36 -1.77,-0.06 -2.87,0.17 a 0.98,0.98 0 0 0 -0.74,1.24 q 3.27,11.11 8.5,25.76 1.81,5.1 3.25,9.49 5.59,17.06 12.15,35.91 0.13,0.37 6.43,18.56 5.15,14.89 10.09,30.89 0.58,1.87 0.93,2.6 c 1.44,3.05 2.05,6.54 3.36,9.98 q 0.99,2.59 2.36,7.42 1.8,6.35 4.21,12.32 1.76,4.37 2.33,6.39 c 1.69,6.02 3.9,10.79 5.95,17.27 2.84,8.99 6.85,19.68 9.23,28.02 0.8,2.81 1.39,5.23 1.22,8.63 q -1.08,21.28 -1.55,26.4 -0.36,3.83 -3.37,6.05 a 1.42,1.39 -10.7 0 0 -0.53,0.76 q -0.3,1.14 0.21,3.23 0.86,3.5 0.05,7.51 a 2.81,2.71 47.2 0 0 -0.02,0.99 q 1.02,6.48 -0.17,13.48 a 0.23,0.22 -54.3 0 1 -0.42,0.07 q -1.5,-2.85 -1.08,-5.17 a 0.41,0.41 0 0 0 -0.38,-0.49 q -0.04,0 -0.24,0.06 a 0.29,0.28 64.5 0 1 -0.32,-0.12 q -1.23,-1.8 -1.99,-4.53 -2.02,-7.25 -2.91,-12.1 a 0.74,0.73 85.2 0 0 -0.71,-0.61 l -2.88,-0.08 A 1.02,1.01 74.9 0 1 345,574.15 q -1.63,-2.68 -2.94,-7.2 -2.48,-8.54 -4.73,-14.27 -0.56,-1.42 -1.45,-5.83 a 1.67,1.6 13.8 0 0 -0.62,-0.98 l -2.83,-2.14 a 4.19,3.43 65.1 0 1 -0.42,-0.39 q -5.38,-5.96 -4.79,-12.99 c 0.2,-2.39 1.06,-4.5 1.32,-6.39 a 1.7,1.69 37.1 0 0 -0.14,-0.98 c -0.27,-0.59 -1.34,-1.27 -1.52,-2.28 q -0.68,-3.88 -2.11,-7.66 c -2.28,-6.02 -4.57,-15.31 -6.31,-19.6 q -2.81,-6.93 -4.1,-11.93 -1.18,-4.54 -7.37,-21.72 -2.13,-5.89 -7.15,-22.44 c -1.88,-6.19 -3.82,-11.4 -6.2,-18.09 -2.45,-6.9 -4.41,-14 -6.85,-20.24 q -1.93,-4.96 -4.33,-12.96 -2.83,-9.46 -7.09,-20.67 c -2.15,-5.65 -3.2,-10.46 -5.11,-15.4 -2.49,-6.44 -4.24,-12.64 -7.02,-18.64 q -1.24,-2.68 -1.73,-5.97 a 0.89,0.88 84.8 0 0 -0.89,-0.75 l -25.61,0.61 a 0.93,0.93 0 0 0 -0.91,0.91 q -0.11,8.29 -2.11,15.01 a 2.97,2.79 72.9 0 1 -0.42,0.86 q -1.46,2.06 -1.69,3.09 a 2.31,2.31 0 0 1 -2.27,1.82 l -8.36,-0.05 a 1.15,1.12 59.7 0 1 -0.58,-0.16 q -3.27,-1.93 -4.37,-5.02 -2.61,-7.29 -2.94,-16.03 a 0.89,0.89 0 0 0 -0.51,-0.77 q -0.72,-0.34 -1.82,-0.25 l -13.48,0.25 -9.93,0.25 a 0.78,0.77 -81.5 0 0 -0.72,0.54 q -2.27,7.1 -9.18,27.95 c -1.22,3.68 -2.4,8.57 -3.92,12.4 q -1.78,4.48 -3,8.93 -2.23,8.12 -4.32,13.49 -0.1,0.26 -7.22,21.93 -6.51,19.79 -19.12,59.96 -5.37,17.11 -10.54,32.49 c -2.83,8.41 -4.39,15.11 -7.33,22.63 q -0.85,2.18 -2.96,9.03 -4.48,14.59 -8.64,27.03 -2.02,6.03 -2.24,6.99 c -1.02,4.46 -2.6,10.97 -7.13,12.11 a 2.28,2.28 0 0 0 -1.69,1.81 q -2.69,15.18 -7.25,29.4 a 0.22,0.21 51.4 0 1 -0.42,-0.05 L 88.42,594.8 a 5,4.99 48 0 1 0.07,-1.37 l 2.64,-13.56 a 0.47,0.46 -82.7 0 0 -0.42,-0.55 q -2.47,-0.21 -3.22,-2.56 c -1.97,-6.19 -2.1,-13.66 -2.39,-20.68 a 1.65,1.62 17.2 0 0 -0.68,-1.26 q -3.09,-2.21 -4.17,-4.79 -4.51,-10.68 1.98,-19.49 0.82,-1.11 6.94,-5.53 a 1.87,1.85 81.5 0 0 0.7,-0.96 q 2.21,-7.03 11.79,-36.87 1.61,-5.01 2.73,-7.92 c 1.5,-3.9 2.18,-7.71 3.67,-12.18 q 5.24,-15.76 13.17,-40.56 6.34,-19.79 20.27,-63.47 5.87,-18.41 11.27,-37.67 a 0.55,0.55 0 0 0 -0.55,-0.7 q -10.98,0.21 -23.71,-0.22 -0.68,-0.02 -1.94,0.91 c -3.27,2.41 -10.75,0.83 -12.99,-0.52 q -3.74,-2.27 -2.61,-7.06 c 1.16,-4.87 5.95,-5.09 10.5,-4.98 q 3.55,0.09 5.91,1.78 1.12,0.8 2.81,0.79 18.29,-0.14 25.35,-0.26 a 0.83,0.82 8.9 0 0 0.75,-0.54 c 0.95,-2.58 1.23,-5.41 2.24,-8.25 4.86,-13.55 8.55,-26.35 12.77,-39.01 q 7.17,-21.52 14.61,-46.38 a 1.12,1.12 0 0 0 -0.44,-1.24 q -7.71,-5.27 -11.81,-12.33 -1.52,-2.61 -4.56,-9.32 -2.12,-4.68 -2.37,-9.98 c -0.28,-5.87 0.05,-14.19 2.88,-19.75 1.05,-2.05 1.95,-4.74 3.41,-6.92 6.53,-9.82 15.74,-17.55 26.92,-21.22 q 4.72,-1.54 9.02,-2.6 a 1.03,1.03 0 0 0 0.78,-1.09 l -0.65,-7.19 A 1.77,1.76 8.8 0 0 208,127.82 q -1.94,-0.79 -2.94,-2.55 a 2.19,2.17 -61 0 1 -0.28,-0.99 q -0.17,-5.56 -0.16,-15.32 0.01,-12.11 1.18,-20.5 a 0.41,0.41 0 0 1 0.8,-0.03 q 0.97,4.53 0.39,9.3 l -0.08,25.85 a 0.36,0.36 0 0 0 0.4,0.36 l 0.33,-0.03 a 0.59,0.59 0 0 0 0.54,-0.66 q -0.88,-8.18 0.6,-15.71 0.27,-1.92 0.43,-3.85 0.01,-0.16 0.09,-0.29 a 0.11,0.1 61.4 0 1 0.19,0.06 l 0.45,19.17 a 0.4,0.39 -9.9 0 0 0.52,0.36 l 0.71,-0.23 a 0.8,0.8 0 0 0 0.56,-0.78 q -0.14,-10.94 0.65,-20.84 0,-0.01 0,0 0.87,8.37 0.42,16.9 l -0.03,4.03 a 0.42,0.42 0 0 0 0.46,0.42 l 5.97,-0.54 q 2.89,0.28 2.66,-0.94 1.13,1.27 2.59,1.33 a 0.59,0.59 0 0 0 0.61,-0.59 l -0.05,-12.31 0.34,-30.16 q 0.17,-1.91 0.96,-1.31 L 226.1,122 a 0.88,0.87 5.9 0 0 0.71,0.87 l 0.42,0.08 a 0.62,0.61 5.8 0 0 0.74,-0.6 l 0.17,-41.8 q 0.06,-0.63 0.28,-1.17 0.1,-0.26 0.61,0.12 0.87,16.49 0.23,32.87 a 0.29,0.29 0 0 0 0.55,0.15 q 0.54,-1.03 0.65,-2.63 0.61,-8.44 0.5,-20.89 -0.09,-11.03 -0.12,-14.25 -0.02,-1.68 -0.45,-6.69 -0.17,-1.96 -1.39,-3.55 -0.85,-1.1 -2.63,-1.34 -0.59,-0.08 -0.52,0.79 -0.02,0.42 -0.17,0.76 a 0.1,0.09 8.3 0 1 -0.09,0.06 q -0.15,0 -0.25,-0.22 l -0.28,-1.85 a 1.34,1.31 15.6 0 0 -0.47,-0.81 q -2.53,-2.02 -6.14,-1.24 -3.09,0.13 -6.03,1.39 c -1.87,1.18 -3.47,2.79 -3.78,5.08 q -0.43,3.09 -0.98,8.24 a 0.75,0.75 0 0 1 -1.29,0.44 q -0.19,-0.21 -0.36,-1.08 c -0.58,-3.12 0.37,-10.44 3.69,-12.78 q 7.39,-5.23 15.66,-2.59 c 9.35,3 6.81,12.38 7.37,18.89 q 0.31,3.58 0.17,9.01 -0.46,17.23 -0.53,35.49 -0.01,1.67 -0.57,3.65 a 2.33,2.32 -14.2 0 1 -0.61,1.02 l -2.8,2.71 a 1.84,1.83 -16.7 0 0 -0.52,0.96 l -0.95,4.85 a 0.8,0.8 0 0 0 0.51,0.89 l 11.93,4.26 a 4.23,4.19 -13.7 0 1 1.36,0.82 q 1.65,1.51 4.6,2.81 a 1.35,1.23 -27.3 0 0 0.45,0.12 q 1.11,0.11 2.05,0.72 z m -36.59,-17.97 q -0.05,0.17 0.61,0.74 0.08,0.08 0.02,1.33 -0.15,2.97 0.08,6.39 a 0.46,0.45 -4.3 0 0 0.5,0.42 l 3.74,-0.33 a 0.82,0.8 2.3 0 0 0.72,-0.65 q 0.67,-3.44 0.46,-3.98 -0.88,-2.3 -0.46,-5.67 a 0.3,0.3 0 0 0 -0.29,-0.34 l -0.31,-0.01 a 0.3,0.29 1 0 0 -0.3,0.28 l -0.12,4.94 a 0.38,0.38 0 0 1 -0.75,0.1 q -0.4,-1.45 -0.24,-4.34 a 0.36,0.36 0 0 0 -0.37,-0.39 l -0.28,0.01 a 0.38,0.38 0 0 0 -0.37,0.39 l 0.13,5.81 a 0.35,0.35 0 0 1 -0.34,0.36 l -0.29,0.01 a 0.17,0.16 -6.7 0 1 -0.16,-0.12 l -1.35,-4.96 a 0.33,0.32 -45.8 0 0 -0.63,0.01 z m 6.97,-0.62 a 0.28,0.28 0 0 0 0.52,0.09 q 0.26,-0.49 0.19,-1 a 0.37,0.37 0 0 0 -0.7,-0.09 q -0.11,0.24 -0.01,1 z m 7.02,0.16 a 0.47,0.4 -49.6 0 0 0.77,-0.13 q 0.29,-0.65 -0.19,-0.99 a 0.46,0.44 19.7 0 0 -0.72,0.32 q -0.03,0.46 0.14,0.8 z m -2.99,0.64 a 0.53,0.39 -70.2 0 0 0.72,-0.49 q 0.01,-0.21 -0.11,-0.43 a 0.33,0.33 0 0 0 -0.58,-0.01 q -0.31,0.56 -0.03,0.93 z m -3.9,7.83 q 0.89,0.02 0.59,-3.08 -0.44,-4.6 -0.48,-4.6 -0.05,0 -0.62,4.58 -0.38,3.09 0.51,3.1 z m 7.95,-7.08 a 0.65,0.65 0 0 0 -0.65,-0.65 0.65,0.65 0 0 0 -0.65,0.65 0.65,0.65 0 0 0 0.65,0.65 0.65,0.65 0 0 0 0.65,-0.65 z m -3.82,2.44 -1.26,-0.14 q -0.43,-0.32 -0.77,-0.2 -0.31,0.1 -0.43,0.65 -0.67,3.23 0.71,4.59 l 2.82,0.34 q 0.79,0.48 0.81,0.48 a 1.67,1.67 0 0 0 0.92,-2.32 q -1.26,-2.46 -2,-4.68 -0.23,-0.71 -0.72,-0.5 a 0.2,0.19 68.4 0 0 -0.11,0.26 q 0.55,1.31 0.03,1.52 z m -24.59,12.33 q -20.7,8.07 -27.86,28.97 l -1.71,9.81 q -0.27,6.86 1.97,13.7 1.48,4.64 4.14,8.62 0.64,0.96 2.18,3.69 2.4,4.24 9.34,9.25 a 0.65,0.64 26.3 0 0 0.99,-0.33 l 0.17,-0.58 a 1.13,1.12 -61.2 0 0 -0.34,-1.19 q -9.71,-8.39 -13.76,-20.75 -1.41,-5.44 -1.43,-11.33 -0.03,-5.26 1.66,-10.53 6.72,-18.54 25.09,-26.14 l 9.25,-3.06 q 12.15,-2.57 22.37,0.4 4.15,1.21 9.84,5.18 1.23,1.73 3.68,2.74 l 7.56,9.51 q 4.09,6.11 5.4,13.19 0.76,1.92 0.82,3.81 0.16,2.58 0.18,5.12 c 0.03,3.54 -0.75,7.06 -1.28,10.65 q -0.97,2.58 -1.93,5.2 -3.3,8.96 -10.05,15.18 c -0.94,0.88 -1.48,1.9 -0.99,3.05 a 0.83,0.83 0 0 0 1.25,0.34 c 4.37,-3.29 7.35,-7.95 10.84,-13.18 a 4.38,4.06 -19.6 0 0 0.37,-0.71 l 3.62,-8.91 q 0.71,-4.28 1.5,-8.49 0.9,-4.81 -0.43,-9.33 l -0.52,-3.96 q -1.47,-6.6 -4.93,-12.18 l -3.82,-5.82 q -0.15,-0.21 -0.29,-0.3 c -1.85,-2.42 -3.74,-5.24 -6.55,-6.63 q -1.34,-0.77 -1.7,-1.7 -7.79,-4.71 -11.78,-6.31 -4.96,-1.98 -12.02,-1.4 -4.79,-0.31 -6.93,0.23 c -4.75,1.19 -9.23,1.85 -13.9,4.19 z m 12.97,8.72 c 1.1,0.23 2.92,-0.53 4.33,-0.36 q 2.68,0.31 6.77,0.36 a 1.83,1.79 -31 0 1 0.81,0.19 l 0.25,0.13 a 1.32,1.32 0 0 0 1.69,-1.91 q -2.15,-3.17 -5.44,-3.37 -3.71,-0.23 -7.18,1.29 a 1.56,1.55 -8 0 0 -0.91,1.2 q -0.21,1.54 -0.51,1.86 a 0.37,0.36 -62.6 0 0 0.19,0.61 z m -17.49,-0.59 q -0.1,0.38 0.07,0.52 a 0.33,0.27 -87.3 0 0 0.39,-0.44 q -0.09,-0.21 -0.34,-0.18 a 0.15,0.14 -83.3 0 0 -0.12,0.1 z m -1.89,1.41 q -0.24,0.19 -0.19,0.39 a 0.12,0.12 0 0 0 0.21,0.05 q 0.08,-0.1 0.15,-0.32 a 0.11,0.11 0 0 0 -0.17,-0.12 z m 27.23,0.85 a 0.51,0.5 -22.5 0 0 -0.38,0.91 q 0.31,0.21 2.17,0.7 a 0.47,0.47 0 0 0 0.58,-0.36 l 0.05,-0.27 a 0.55,0.54 10.2 0 0 -0.45,-0.64 z m -24.06,2.75 q 0.18,-0.1 0.15,-0.45 -0.03,-0.3 -0.21,-0.45 -1.15,-0.97 -2.2,-1.44 a 0.17,0.17 0 0 0 -0.23,0.1 q -0.06,0.14 0.13,0.47 a 0.43,0.42 -18.3 0 0 0.43,0.21 q 1.52,-0.22 1.55,1.35 a 0.25,0.25 0 0 0 0.38,0.21 z m 20.48,-2.23 a 0.23,0.23 0 0 0 -0.06,0.41 q 0.47,0.35 0.74,0.09 a 0.35,0.34 -63.6 0 0 -0.19,-0.6 q -0.19,-0.01 -0.49,0.1 z m 7.03,0.56 a 0.54,0.45 -69.7 0 0 0.83,-0.47 q -0.02,-0.28 -0.23,-0.37 c -0.45,-0.18 -0.81,0.57 -0.6,0.84 z m 36.81,8.5 1.62,3.96 a 1.93,1.62 -66.5 0 1 0.08,0.27 q 1.05,4.55 2.66,8.25 a 1.58,1.55 -53.3 0 1 0.12,0.88 q -0.26,1.79 0.64,3.59 a 0.25,0.24 -32.2 0 0 0.37,0.08 q 0.09,-0.07 0.11,-0.08 a 1.15,1.13 45.3 0 1 0.86,0.01 q 2.63,1.11 4.82,3.06 l -0.56,0.3 -5.03,-2.94 a 0.47,0.47 0 0 0 -0.71,0.39 l -0.05,2.3 a 0.57,0.57 0 0 0 0.58,0.59 q 1.23,-0.01 2.19,1.53 0.1,-0.32 0.12,0.33 l -2.3,-1.05 a 0.57,0.56 -69.3 0 0 -0.77,0.35 q -0.41,1.35 1.07,2.19 a 0.34270979,0.34270979 0 0 1 -0.27,0.63 l -0.55,-0.17 a 0.61,0.6 13.3 0 0 -0.78,0.48 l -0.53,3.25 q -0.06,1.61 -0.81,3.06 a 1.74,1.72 55.3 0 0 -0.18,1.02 q 0.11,0.82 -0.48,1.82 -0.38,0.64 -0.21,1.14 a 0.8,0.78 -54.8 0 0 1.53,-0.29 q 0.04,-1.08 0.19,-1.99 0.25,-1.57 1.19,-2.43 0.31,-0.28 0.9,-0.09 0.5,0.83 0.96,0.53 a 1.29,1.28 45.2 0 0 0,-2.16 q -0.2,-0.14 -0.67,-0.3 l -0.83,-0.23 q -0.41,-0.8 -0.32,-1.27 a 0.44,0.44 0 0 1 0.8,-0.15 q 0.61,0.91 1.04,0.81 a 0.3,0.23 8.3 0 0 0.13,-0.07 l 0.41,-0.43 a 0.34,0.34 0 0 1 0.58,0.17 q 0.05,0.25 0.06,0.37 a 0.7,0.7 0 0 0 0.87,0.66 q 1.04,-0.27 1.35,0.95 0.12,0.44 0.81,1.02 0.63,0.53 1.13,0.24 1.07,-5.56 0.6,-10.82 l -0.71,-4.69 a 2.15,2.07 -68.4 0 0 -0.38,-0.92 l -1.41,-1.93 q 0.41,-1.3 -0.18,-2.17 -0.38,-2.29 -2.17,-2.51 a 1.26,1.23 73.6 0 1 -0.82,-0.46 q -0.94,-1.18 -2.33,-2.03 a 0.26,0.26 0 0 1 0.23,-0.46 q 1.7,0.62 2.91,2.16 a 0.44,0.44 0 0 0 0.74,-0.46 q -1.98,-4.14 -5.22,-7.72 l -8.11,-7.76 a 0.48,0.48 0 0 0 -0.8,0.48 q 0.4,1.41 1.67,2.54 a 2.04,2.03 5.1 0 1 0.36,0.43 z m -62.06,-8.59 q -0.05,-0.18 -0.21,-0.25 a 0.08,0.08 0 0 0 -0.1,0.11 q 0.1,0.21 0.15,0.25 a 0.11,0.1 -78.2 0 0 0.16,-0.11 z m -9.11,0.64 q -0.36,-0.01 -0.43,0.09 a 0.31,0.27 -3 0 0 0.45,0.35 q 0.07,-0.05 0.12,-0.25 a 0.15,0.14 10.2 0 0 -0.14,-0.19 z m 4.65,14.15 q -0.42,0.39 -0.21,0.39 -2.02,2.79 -4.03,5.65 -0.79,1.11 -1.87,5.54 a 3.46,3.45 -24.9 0 1 -0.31,0.84 q -3.33,6.61 -1.56,13.6 0.62,4.16 2.43,7.08 0.53,2.24 1.71,3.14 a 1.19,1.18 -62.8 0 0 1.85,-0.6 l 2.72,-8.87 a 0.72,0.71 9.5 0 1 0.71,-0.5 c 2.99,0.1 4.22,1.96 7,2.93 a 3.61,3.61 0 0 1 1.49,0.98 c 1.58,1.74 2.72,2.68 3.93,4.48 q 4.76,7.09 5.22,8.05 a 0.9,0.89 73.6 0 0 0.92,0.51 l 6.65,-0.85 a 1.84,1.69 -40.4 0 1 0.53,0.02 q 3.45,0.72 5.83,2.18 a 0.37,0.37 0 0 0 0.52,-0.13 l 11.37,-19.68 a 1.32,1.32 0 0 1 0.98,-0.65 q 2.8,-0.34 3.87,0.38 4.63,3.13 5.23,4.18 c 0.35,0.63 2.1,1.12 2.54,2.12 q 0.21,0.5 0.43,0.59 a 0.48,0.46 23.4 0 0 0.63,-0.23 l 2.03,-4.8 q 3.01,-10.4 1.29,-21.16 l -1.88,-5.9 a 3.07,2.82 -75.3 0 0 -0.46,-0.87 l -4.4,-5.73 a 9.32,9.31 83.8 0 0 -3.4,-2.74 q -6.24,-2.93 -13.41,-3.96 -3.17,-0.46 -5.97,1.02 c -4.21,2.21 -7.1,1.17 -11.83,0.09 -1.56,-0.35 -4.87,1.68 -6.59,2.49 q -7.99,3.79 -13.96,10.41 z m -2.05,-13.48 a 0.23021729,0.23021729 0 0 0 -0.26,0.38 q 0.39,0.34 0.42,0.35 a 0.28,0.28 0 0 0 0.31,-0.44 q -0.09,-0.11 -0.47,-0.29 z m 2.22,2.04 a 0.28,0.28 0 0 0 0.25,-0.49 l -0.59,-0.42 a 0.23,0.23 0 0 0 -0.32,0.31 q 0.34,0.49 0.66,0.6 z m 3.66,-0.7 q -0.27,-0.05 -0.67,0.12 a 0.1,0.09 -52 0 0 0.02,0.18 q 0.11,0.02 0.52,0.06 a 0.21040133,0.17032489 -31.1 0 0 0.13,-0.36 z m -6.72,0.85 q -0.2,-0.51 -1.08,-0.72 -0.39,-0.09 -0.58,0.05 a 0.18,0.18 0 0 0 0.06,0.31 q 0.4,0.11 1.03,0.73 a 0.35,0.35 0 0 0 0.57,-0.37 z m -12.11,9.86 q -0.15,0.72 -0.03,1.37 a 0.77,0.77 0 0 0 1.52,-0.06 l 0.1,-1.1 q 0.87,-0.34 0.92,-0.98 0.09,-1.39 0.71,-2.54 1.55,-2.87 3.57,-5.68 a 0.25,0.25 0 0 0 -0.05,-0.35 l -0.07,-0.05 a 0.39,0.37 31.9 0 0 -0.56,0.12 q -1.02,1.95 -2.64,3.36 a 2.92,2.9 -11.1 0 0 -0.8,1.18 l -0.33,0.93 a 1.99,1.89 -12.7 0 1 -0.52,0.78 q -1.36,1.28 -1.82,3.02 z m 9.2872,-9.0432 a 1.62,0.28 -46.4 0 0 -1.32,0.9801 1.62,0.28 -46.4 0 0 -0.9144,1.3663 1.62,0.28 -46.4 0 0 1.32,-0.9801 1.62,0.28 -46.4 0 0 0.9144,-1.3663 z M 197.69,159.92 a 0.54,0.51 42.7 0 0 -0.06,-0.96 q -0.25,-0.11 -0.42,0.21 -0.19,0.36 0.15,0.56 0.32,0.19 0.33,0.19 z m -6.17,0.23 a 0.34,0.32 69.4 0 0 -0.25,0.59 q 0.25,0.2 0.5,0.14 a 0.33,0.32 -39.3 0 0 0.07,-0.61 q -0.26,-0.11 -0.32,-0.12 z m -4.1,1.72 q 1.12,-0.86 1.16,-1.09 a 0.36,0.36 0 0 0 -0.57,-0.34 q -0.44,0.34 -0.88,1.19 a 0.19,0.19 0 0 0 0.29,0.24 z m -4.24,1.26 a 0.34,0.3 -39.9 0 0 0.55,0.01 q 0.49,-0.64 0.33,-0.93 a 0.45,0.44 -48.2 0 0 -0.8,0.05 q -0.23,0.52 -0.08,0.87 z m 6,-0.85 q -0.1,0.09 -0.01,0.64 a 0.42,0.37 65.9 0 0 0.63,0.29 q 0.31,-0.27 0.29,-0.56 a 0.55,0.52 65.8 0 0 -0.91,-0.37 z m 3.4,0.71 q 0.46,-0.03 0.7,-0.3 a 0.27,0.27 0 0 0 -0.27,-0.45 q -0.4,0.1 -0.48,0.19 a 0.36,0.24 -61.5 0 0 0.05,0.56 z m -6.33,-0.25 q -0.29,0.34 -0.32,0.56 a 0.45,0.42 -26.1 0 0 0.81,0.25 q 0.18,-0.28 0.12,-0.64 a 0.35,0.35 0 0 0 -0.61,-0.17 z m -4.75,3.75 q 0.39,0.21 0.85,-0.09 0.33,-0.22 0.45,-0.73 0.48,-2.02 0.25,-2.14 -0.23,-0.12 -1.62,1.43 -0.35,0.38 -0.34,0.77 0.01,0.56 0.41,0.76 z m 5.32,-2.21 q 0.29,1.19 0.39,1.24 a 0.43,0.43 0 0 0 0.61,-0.46 q -0.05,-0.3 -0.66,-0.96 a 0.2,0.2 0 0 0 -0.34,0.18 z m 2.97,1.23 q -0.36,0.52 -0.89,0.97 a 0.23,0.22 -41.6 0 0 -0.02,0.32 q 0.1,0.12 0.29,0.11 0.19,-0.01 0.36,-0.35 0.23,-0.46 0.52,-0.87 0.28,-0.41 0.63,-0.8 0.26,-0.28 0.2,-0.46 -0.06,-0.18 -0.21,-0.23 a 0.23,0.22 -69.3 0 0 -0.29,0.14 q -0.23,0.65 -0.59,1.17 z m -6.09,0.76 q -0.51,0.9 -0.5,1.4 a 0.31,0.31 0 0 0 0.61,0.1 q 0.28,-0.8 0.48,-1.16 0.2,-0.37 0.75,-1.02 a 0.31184932,0.31184932 0 0 0 -0.41,-0.47 q -0.43,0.26 -0.93,1.15 z m 8.53,-0.87 -0.28,0.9 a 0.29,0.29 0 0 0 0.51,0.27 q 0.46,-0.57 0.35,-1.14 a 0.3,0.3 0 0 0 -0.58,-0.03 z m -6.04,1.68 q -0.84,0.72 -0.98,1.46 a 0.26,0.26 0 0 0 0.42,0.25 q 1.34,-1.13 1.22,-1.52 a 0.41,0.41 0 0 0 -0.66,-0.19 z m 4.16,0.26 q -0.52,1.75 -1.88,2.84 a 0.04,0.04 0 0 0 -0.01,0.05 l 0.15,0.21 a 0.23,0.23 0 0 0 0.33,0.03 q 1.34,-1.17 1.82,-2.88 a 0.29,0.28 13.8 0 0 -0.22,-0.36 h -0.01 a 0.16,0.15 -75.9 0 0 -0.18,0.11 z m -6.62,4 q -0.96,-1.79 -2.23,-3.05 -0.76,-0.75 -1.17,-0.3 -0.42,0.47 -0.38,1.51 a 0.32,0.32 0 0 0 0.53,0.23 q 0.28,-0.24 0.41,-0.48 a 0.49,0.49 0 0 1 0.93,0.2 q 0.1,1.66 1.59,2.25 a 0.26,0.25 87.1 0 0 0.32,-0.36 z m 4.09,-1.65 0.29,-0.95 a 0.43,0.43 0 0 0 -0.69,-0.45 q -0.63,0.54 -0.32,1.41 a 0.38,0.38 0 0 0 0.72,-0.01 z m -6.11,10.39 c -3.05,-0.02 -2.12,-2.22 -3.74,-3.41 q -1.41,-1.03 -2.42,-2.46 -0.26,-0.37 -0.75,-0.39 a 0.51,0.5 60.5 0 0 -0.26,0.95 q 0.79,0.42 1.3,1.05 a 2.03,1.92 20.6 0 1 0.39,0.8 q 0.29,1.28 0.4,1.41 2.06,2.46 4.2,3.79 0.07,0.04 2.19,1.49 a 0.39,0.39 0 0 0 0.56,-0.11 q 0.36,-0.58 -0.26,-1.5 2.07,-2.9 3.12,-6.36 a 2.16,2.04 77.8 0 1 0.54,-0.89 q 0.52,-0.51 1.12,-1.51 a 0.66,0.65 -66 0 0 -0.36,-0.96 l -1.81,-0.55 a 0.8,0.8 0 0 0 -0.93,0.36 l -1.31,2.28 a 0.31,0.3 -36.8 0 1 -0.56,-0.08 q -0.22,-0.92 -0.61,-1.23 a 0.4,0.39 16.7 0 0 -0.64,0.34 q 0.04,0.36 -0.12,0.51 a 0.22,0.21 57.4 0 1 -0.35,-0.08 q -0.55,-1.43 -2.05,-2.98 a 0.43,0.43 0 0 0 -0.65,0.56 l 2.57,3.48 a 0.85,0.84 -19.3 0 0 0.69,0.33 q 0.3,-0.01 0.31,-0.02 a 0.46,0.46 0 0 1 0.6,0.45 l -0.03,0.94 a 0.38,0.37 60.8 0 0 0.7,0.2 l 2.4,-4.15 a 0.38,0.38 0 0 1 0.52,-0.14 l 0.25,0.15 a 0.2,0.19 29.7 0 1 0.08,0.27 l -2.94,5.08 a 0.36,0.35 -69.3 0 1 -0.38,0.18 q -0.4,-0.07 -0.4,-0.54 a 0.57,0.56 8.3 0 0 -0.41,-0.54 l -2,-0.61 a 0.89,0.88 84.8 0 1 -0.52,-0.44 l -1.65,-3.16 a 0.26,0.26 0 0 0 -0.32,-0.12 q -0.22,0.09 -0.25,0.09 a 0.46,0.46 0 0 1 -0.58,-0.47 q 0.03,-0.69 -0.28,-0.97 a 1.08,0.77 -82.8 0 0 -1.2,1.31 q 0.46,2.17 2.13,2.7 a 1.33,1.32 -8 0 1 0.71,0.53 z m 1.17,4.69 a 0.7,0.69 6.9 0 0 -0.43,-0.54 q -2.77,-1.17 -4.28,-3.51 a 1.36,1.33 76.3 0 0 -0.98,-0.61 q -0.19,-0.03 -0.2,-0.03 a 1.24,1.23 -5.6 0 1 -0.83,-0.68 l -1.24,-2.55 a 0.53,0.53 0 0 0 -1.01,0.31 q 0.22,1.52 1.31,3.47 a 1.14,1.08 -88.5 0 0 0.35,0.39 l 6.93,4.85 a 0.33,0.33 0 0 0 0.51,-0.32 z m -0.21,3.83 q -0.6,-1.76 -2.15,-2.7 -3.51,-2.12 -6.54,-5.45 a 0.33,0.33 0 0 0 -0.58,0.25 l 0.19,2.17 a 0.84,0.84 0 0 0 0.96,0.75 q 0.53,-0.09 0.9,0.14 3.53,2.13 6.38,5.33 a 0.5,0.5 0 0 0 0.84,-0.49 z m -8.1632,-3.8351 a 0.97,0.5 -139.1 0 0 0.4058,1.013 0.97,0.5 -139.1 0 0 1.0606,0.2572 0.97,0.5 -139.1 0 0 -0.4058,-1.013 0.97,0.5 -139.1 0 0 -1.0606,-0.2572 z m 6.0232,4.6051 q -1.05,-1.57 -3.26,-2.94 a 0.35,0.34 -80.5 0 0 -0.51,0.37 q 0.27,1.21 1.26,1.49 2.1,0.61 1.86,1.73 a 0.57,0.57 0 0 0 0.45,0.68 q 0.3,0.05 0.99,0.79 a 0.47,0.47 0 0 0 0.64,0.04 l 0.26,-0.24 a 0.46,0.45 41.4 0 0 -0.05,-0.71 l -1.46,-1.02 a 0.74,0.66 4.8 0 1 -0.18,-0.19 z m 1.43,4.3 -7.5,-6.52 a 0.19104973,0.19104973 0 0 0 -0.28,0.26 q 3.06,4.22 7.17,6.83 a 0.37,0.36 -52.7 0 0 0.47,-0.07 l 0.17,-0.19 a 0.22,0.22 0 0 0 -0.03,-0.31 z m -0.02,1.88 a 0.05,0.03 -80.8 0 0 -0.02,-0.04 q -3.19,-0.83 -5.43,-3.76 -0.55,-0.73 -1.41,-1.13 a 0.19,0.19 0 0 0 -0.24,0.27 q 2.66,4.32 6.8,5.26 a 0.17,0.17 0 0 0 0.21,-0.13 z m 87.88,1.09 a 0.51,0.51 0 0 0 0.59,-0.83 l -3.07,-2.66 a 0.18,0.18 0 0 0 -0.26,0.02 l -0.18,0.2 a 0.58,0.57 46.8 0 0 -0.02,0.72 q 1.18,1.53 2.94,2.55 z m -5.0848,-1.3333 a 1.33,0.46 -78.5 0 0 -0.716,1.2116 1.33,0.46 -78.5 0 0 0.1856,1.395 1.33,0.46 -78.5 0 0 0.716,-1.2116 1.33,0.46 -78.5 0 0 -0.1856,-1.395 z M 233.31,206.28 q -0.8,0.5 -1.16,1.26 a 0.56,0.56 0 0 0 0.26,0.74 l 5.54,2.73 q -0.67,-0.23 -1.14,-0.04 -0.21,0.09 -0.09,0.68 -3.2,-1.86 -4.45,-0.19 a 0.45,0.45 0 0 0 0.42,0.71 q 0.85,-0.12 1.14,0.21 a 0.23,0.23 0 0 1 -0.24,0.37 l -2.07,-0.56 q -1.48,0.17 0.61,-2.06 0.36,-0.38 0.33,-0.63 -0.01,-0.11 -0.32,-0.74 a 0.32,0.32 0 0 0 -0.57,-0.02 l -3.26,5.63 a 0.45,0.44 29.5 0 0 0.17,0.6 l 2.03,1.18 a 0.41,0.41 0 0 1 0.13,0.13 l 3.19,5.21 a 1.77,1.72 29.6 0 1 0.25,0.86 q 0.02,1.38 0.79,3.86 a 3.48,3.33 -50.9 0 1 0.12,1.46 q -0.52,3.98 -2.31,6.43 a 2.12,2.12 0 0 0 -0.22,2.11 q 2.08,4.63 2.76,7.56 0.33,1.47 2.86,7.11 1.83,4.07 2.72,7.14 c 1.51,5.24 2.65,8.32 4.19,13.77 1.34,4.71 3.66,8.94 4.88,13.33 q 0.52,1.89 2.64,7.51 c 2.31,6.14 4.17,12.95 7.76,20.17 a 4.79,4.72 27.1 0 1 0.43,1.3 q 0.32,1.8 0.82,3.39 5.12,16.36 12,35.66 c 0.75,2.09 1.24,4.62 1.87,6.22 q 3.15,7.95 6,16.75 c 3.15,9.76 6.72,19.12 9.42,27.91 q 0.34,1.1 1.2,3.17 c 1.05,2.5 1.45,5.48 2.35,8.15 q 4.78,13.99 6.04,18.05 c 1.01,3.28 2.46,5.55 3.17,8.77 q 0.43,1.97 2.07,6.68 7.61,21.87 13.11,38.66 2.19,6.67 5.54,16.07 2.74,7.69 5.5,16.14 a 0.71,0.71 0 0 0 1.1,0.35 l 4.23,-3.13 a 1.4,1.34 15.3 0 1 0.35,-0.19 q 5.37,-2.02 10.34,-0.63 a 0.73,0.73 0 0 0 0.87,-0.98 l -3.14,-7.51 a 0.05,0.03 -76.7 0 1 -0.01,-0.03 q -0.09,-0.83 -0.13,-0.99 -1.78,-6.85 -6.57,-18.68 a 1.91,1.81 -61.8 0 1 -0.09,-0.33 l -0.57,-3.38 a 10.65,9.95 30.8 0 0 -0.61,-2.11 q -2.55,-6.25 -3.68,-9.96 -1.76,-5.8 -3.23,-9.59 -1.96,-5.04 -3.55,-10.68 -0.57,-2.04 -3.77,-10.38 c -0.71,-1.87 -0.91,-4.1 -1.68,-5.57 -1.25,-2.39 -1.34,-5.35 -2.54,-7.91 q -0.85,-1.8 -1.4,-3.73 -2,-7.08 -8.33,-26.33 c -0.52,-1.58 -1.53,-3.29 -1.98,-4.71 q -7.75,-24.16 -9.28,-28.32 -0.57,-1.54 -0.8,-2.27 -0.83,-2.7 -2.8,-8.17 c -2.54,-7.05 -4.99,-15.57 -7.39,-21.11 -1.9,-4.37 -2.54,-9.35 -4.71,-13.22 a 1.97,1.85 -69.7 0 1 -0.16,-0.38 l -2.43,-7.67 a 0.37,0.05 82 0 1 -0.02,-0.07 q -0.91,-5.25 -3.5,-9.67 1.47,-0.37 -0.14,-3.59 a 0.6,0.42 -79.7 0 1 -0.05,-0.11 l -3.95,-13.81 a 3.08,2.57 -61.7 0 1 -0.11,-0.54 l -0.14,-1.02 a 0.56,0.56 0 0 0 -0.7,-0.56 q -0.5,0.14 -1.1,0.57 -0.85,-2.42 -1.99,-7.18 c -0.98,-4.07 -3.3,-10.05 -4.61,-15 -0.79,-2.98 -1.66,-5.07 -2.24,-7.24 q -3.64,-13.58 -11.3,-34 a 1.14,1.14 0 0 0 -1.7,-0.55 q -3.97,2.66 -6.35,-2.15 l 0.36,-1.66 q 0.76,-0.5 0.59,-1.31 a 0.22,0.21 10.7 0 0 -0.07,-0.1 l -0.26,-0.14 a 0.39,0.38 30.8 0 1 -0.14,-0.53 l 0.51,-0.88 a 0.51,0.51 0 0 1 0.82,-0.1 q 0.67,0.7 1.37,-0.1 c 2.43,-2.77 -0.92,-12.44 -2.21,-15.68 a 0.58,0.57 71.7 0 0 -0.68,-0.35 q -1.56,0.41 -2.8,2.32 -3,4.62 -4.11,7.62 z m -51.3178,-9.6963 a 0.74,0.45 -120.7 0 0 -0.009,0.866 0.74,0.45 -120.7 0 0 0.7647,0.4066 0.74,0.45 -120.7 0 0 0.009,-0.866 0.74,0.45 -120.7 0 0 -0.7647,-0.4066 z M 267.85,199.07 q 0.37,-1.64 -0.58,-2.3 a 0.9,0.85 -89.9 0 0 -1.18,1.25 q 0.16,0.27 1.17,1.23 a 0.36,0.35 -61.8 0 0 0.59,-0.18 z m -75.17,5.92 -2.65,10.2 -26.66,84.99 -3.06,10.19 -6.01,18.31 -3.88,13.81 -3.3,9.48 -6.75,22.46 -27.86,86.05 a 6.45,5.84 -35 0 0 -0.22,0.97 q -0.59,4.42 -2.38,8.41 -2.14,4.75 -3.09,7.82 -3.48,11.23 -4.55,15.23 c -2.51,9.31 -6.87,19.52 -9.17,29.72 a 1.62,1.48 -22.8 0 1 -0.28,0.61 q -0.73,0.96 -0.71,1.01 a 0.41,0.41 0 0 0 0.74,0.16 q 0.16,-0.22 6.55,2.02 c 7.46,2.6 7.68,8.05 7.76,15.76 q 0,0.71 0.55,0.29 a 0.13,0.12 -20.8 0 0 0.05,-0.1 l 0.34,-3.57 a 1.59,1.56 58.5 0 1 0.08,-0.35 q 1.8,-5.07 6.8,-21.97 12.77,-43.13 47.35,-149.82 1.57,-4.12 2.6,-8.5 0.21,-0.88 0.21,-1.79 a 1.58,1.48 -37.9 0 1 0.09,-0.57 l 4.27,-12.01 1.8,-7.22 a 1.19,0.83 -39.3 0 1 0.05,-0.14 q 3.19,-7.01 4.57,-14.48 a 4.59,4.51 62.9 0 1 0.32,-1.02 q 1.83,-4.16 2.67,-8.69 0.85,-4.59 1.46,-5.89 3.55,-7.53 5.58,-14.63 2.35,-8.24 5.8,-16.94 2.18,-5.5 3.52,-14.94 3.6,-7.61 5.26,-13.35 2.88,-9.98 3.24,-10.57 a 1.11,1.08 -38.9 0 0 0.11,-0.92 q -0.82,-2.58 -1.41,-3.76 -0.69,-1.41 -0.57,-5.19 l 0.39,-3.12 q 0.91,-3.88 4.06,-6.7 a 1.6,1.6 0 0 0 -0.02,-2.41 q -1.69,-1.43 -3.43,-4.24 -3.3,-5.29 -6.79,-11.24 a 0.68,0.68 0 0 0 -1.18,0.01 q -1.65,2.92 -2.25,6.63 z m 77.0256,-6.8642 a 0.53,0.34 -66 0 0 -0.5262,0.3459 0.53,0.34 -66 0 0 0.095,0.6225 0.53,0.34 -66 0 0 0.5262,-0.3459 0.53,0.34 -66 0 0 -0.095,-0.6225 z M 247.48,203.42 q -0.57,0.27 -1,-0.34 a 0.65,0.65 0 0 1 0.05,-0.82 q 0.04,-0.05 0.09,-0.11 a 1.13,1.12 -40.4 0 0 0.1,-1.2 q -0.55,-1.06 -1.85,-2.02 a 0.48,0.48 0 0 0 -0.71,0.6 q 0.76,1.58 1.03,4.56 a 0.37,0.37 0 0 0 0.54,0.29 q 1.03,-0.52 2,-0.24 a 0.29,0.29 0 0 0 0.37,-0.28 q -0.01,-0.15 -0.13,-0.38 -0.11,-0.23 -0.49,-0.06 z m -65.07,-4.12 q -0.63,-0.3 -1.1,-0.13 a 0.35,0.35 0 0 0 0.03,0.66 q 0.43,0.11 0.99,0.02 a 0.29,0.29 0 0 0 0.08,-0.55 z m 82.88,-0.02 q -0.37,0.32 -0.08,2.28 0.03,0.23 0.27,0.3 0.26,0.08 0.6,0 a 0.38,0.38 0 0 0 0.27,-0.53 q -0.5,-1.11 -0.53,-1.83 a 0.32,0.32 0 0 0 -0.53,-0.22 z m -1.5499,0.5342 a 0.7,0.5 -67.3 0 0 -0.7314,0.4528 0.7,0.5 -67.3 0 0 0.1912,0.8388 0.7,0.5 -67.3 0 0 0.7314,-0.4528 0.7,0.5 -67.3 0 0 -0.1912,-0.8388 z M 257.7,206.84 q 2.93,-2.73 3.76,-6.11 a 0.32,0.32 0 0 0 -0.55,-0.29 q -1.28,1.45 -2.06,3.64 -0.28,0.77 -0.77,1.26 -1.02,1 -1,1.26 a 0.37,0.37 0 0 0 0.62,0.24 z m -48.4,5.51 q -1.58,-4.14 -4.46,-6.84 c -0.99,-0.93 -1.48,-2.51 -2.32,-3.06 a 0.6,0.59 -1.6 0 0 -0.81,0.85 l 6.95,9.4 a 0.37,0.37 0 0 0 0.64,-0.35 z m 53.5222,-9.8283 a 1.53,0.4 -53.4 0 0 -1.2333,0.9898 1.53,0.4 -53.4 0 0 -0.5911,1.4668 1.53,0.4 -53.4 0 0 1.2333,-0.9898 1.53,0.4 -53.4 0 0 0.5911,-1.4668 z M 264.61,205.6 q -0.1,-0.66 -1.09,-1.37 a 0.28,0.28 0 0 0 -0.44,0.3 q 0.07,0.26 1.1,1.29 a 0.25,0.25 0 0 0 0.43,-0.22 z m -17.46,0.04 a 0.68,0.62 -28.3 0 0 -1.17,-0.29 q -0.33,0.37 0.15,0.72 0.42,0.3 0.76,-0.03 0.27,-0.26 0.26,-0.4 z m 14.69,0.71 a 0.35,0.34 -73.6 0 0 0.31,0.57 q 0.65,-0.11 0.74,-0.54 a 0.38,0.34 82.1 0 0 -0.5,-0.43 q -0.38,0.22 -0.55,0.4 z m 1.81,1.34 q -0.04,-0.3 -0.16,-0.33 a 0.11,0.11 0 0 0 -0.14,0.13 q 0.04,0.17 0.15,0.28 a 0.09,0.09 0 0 0 0.15,-0.08 z m 1.66,0.27 q 0.18,-0.15 0.29,-0.42 a 0.23,0.23 0 0 0 -0.24,-0.32 q -0.08,0 -0.34,0.51 a 0.19,0.19 0 0 0 0.29,0.23 z m -7.02,1.06 a 0.4519444,0.41177157 77.4 0 0 0.43,-0.75 q -0.14,-0.11 -0.52,0.14 a 0.2,0.19 -24.2 0 0 -0.09,0.22 q 0.08,0.33 0.18,0.39 z m 3.51,-0.03 q 0.26,0.82 0.62,1.2 a 0.41,0.41 0 0 0 0.69,-0.16 q 0.15,-0.5 -0.96,-1.29 a 0.23,0.23 0 0 0 -0.35,0.25 z m -56.91,18.02 c 0.06,7.29 6.28,12.43 13.31,11.87 q 0.76,-0.06 0.85,-0.52 0.09,-0.43 -0.24,-1.08 0.26,-1.29 0.91,-1.17 l 0.24,1.83 a 0.51,0.51 0 0 0 0.6,0.44 q 5.13,-0.99 7.46,-5.89 a 0.41,0.41 0 0 0 -0.47,-0.58 q -0.15,0.04 -0.29,0.08 a 0.28,0.28 0 0 1 -0.35,-0.25 l -0.07,-0.79 a 0.84,0.84 0 0 1 0.37,-0.78 c 4.67,-3.18 1.69,-9.8 -1.88,-12.58 q -4.91,-3.71 -9.58,-3.09 -5.47,0.73 -9.05,6.4 -2.13,3.38 -1.81,6.11 z m 8.47,72.55 0.26,-0.85 q 0.71,-3.1 3.19,-5.01 a 1.67,1.66 -66.1 0 1 0.88,-0.34 c 4.81,-0.39 11.19,-0.87 13.3,4.11 2.31,5.45 3.28,12.85 3.64,17.05 a 0.52,0.52 0 0 0 0.51,0.48 l 22.04,0.56 a 0.85,0.85 0 0 0 0.82,-1.14 l -27.42,-77.13 a 0.6,0.59 -30.2 0 0 -0.95,-0.25 q -8.04,6.92 -18.16,3.55 a 0.44,0.44 0 0 0 -0.56,0.29 l -22.42,73.31 a 0.67,0.67 0 0 0 0.62,0.86 l 20.69,0.52 a 0.8,0.79 5.5 0 0 0.8,-0.65 z m 48.2,-59.11 0.65,1.82 a 0.43,0.42 40.7 0 0 0.82,-0.06 q 0.16,-0.85 -1.17,-1.97 a 0.19,0.19 0 0 0 -0.3,0.21 z m -1.59,1.5 q -0.08,-0.61 -0.18,-0.72 -0.52,-0.58 -0.6,0.01 -0.04,0.31 0.29,0.88 a 0.26,0.26 0 0 0 0.49,-0.17 z m 0.04,1.92 q -0.14,0.81 -0.09,0.98 a 0.47,0.46 44.8 0 0 0.89,0.01 q 0.15,-0.5 -0.29,-1.11 a 0.28,0.28 0 0 0 -0.51,0.12 z m 2.09,5.81 q -0.07,-0.72 -0.24,-1.44 -0.17,-0.74 -0.73,-1.13 a 0.2,0.2 0 0 0 -0.31,0.22 q 0.42,1.25 0.58,2.53 0.12,0.71 0.29,1.42 0.17,0.74 0.73,1.14 a 0.2,0.2 0 0 0 0.31,-0.22 q -0.42,-1.26 -0.63,-2.52 z m -59.73,-0.48 q -0.3,0.79 -0.18,1.08 a 0.29,0.29 0 0 0 0.53,0.01 q 0.27,-0.61 0.16,-1.06 a 0.27,0.27 0 0 0 -0.51,-0.03 z m -0.7,2.66 -0.53,1.73 a 0.36,0.3 47.7 0 0 0.01,0.21 q 0.6,1.46 0.83,-1.88 a 0.16,0.16 0 0 0 -0.31,-0.06 z m 1.57,1.96 q 0.16,0.43 0.95,1.17 a 0.29,0.29 0 0 0 0.43,-0.36 q -0.61,-0.93 -0.67,-1.09 -0.06,-0.16 -0.23,-1.25 a 0.29,0.29 0 0 0 -0.56,0.02 q -0.09,1.07 0.08,1.51 z m 60.09,2.39 q 0.47,1.07 1.31,1.83 a 0.25,0.25 0 0 0 0.38,-0.3 q -0.57,-1.04 -0.93,-1.87 -0.37,-0.83 -0.76,-1.95 a 0.25,0.25 0 0 0 -0.48,0.08 q 0,1.13 0.48,2.21 z m 2.0769,-1.0321 a 1.22,0.41 -135.7 0 0 0.5867,1.1455 1.22,0.41 -135.7 0 0 1.1595,0.5587 1.22,0.41 -135.7 0 0 -0.5867,-1.1455 1.22,0.41 -135.7 0 0 -1.1595,-0.5587 z M 197.98,263.79 c -1.71,1.43 -0.69,3.36 -1.05,5.35 a 2.64,2.51 64.1 0 1 -0.2,0.63 q -0.85,1.77 -0.65,3.9 a 0.15,0.15 0 0 0 0.29,0.03 l 1.65,-5.38 a 1.03,0.92 52 0 0 0.03,-0.46 q -0.35,-2 0.18,-4.02 l 1.73,-2.47 a 5.28,5.26 63.3 0 0 0.95,-2.89 l 0.08,-3.06 a 0.26,0.26 0 0 0 -0.49,-0.13 q -0.84,1.68 -0.6,4.11 a 0.6,0.48 -80.7 0 1 -0.72,0.65 q -0.11,-0.06 -0.24,-0.09 a 0.33,0.33 0 0 0 -0.38,0.26 z m 4.28,-8.29 -0.36,5.35 a 0.1,0.1 0 0 0 0.09,0.1 h 0.02 a 2.62,1 -86.1 0 0 1.18,-2.54 l 0.02,-0.32 a 2.62,1 -86.1 0 0 -0.82,-2.68 h -0.02 a 0.1,0.1 0 0 0 -0.11,0.09 z m 64.95,4.27 q 0.54,0.89 0.59,1.28 a 0.27,0.27 0 0 0 0.53,-0.01 q 0.06,-0.62 -0.54,-1.62 -0.6,-1.01 -1.19,-1.24 a 0.27,0.27 0 0 0 -0.25,0.47 q 0.32,0.22 0.86,1.12 z m 6.63,16.03 q -1.28,-2.87 -2.63,-3.14 a 0.86,0.85 81 0 1 -0.56,-0.41 l -1.96,-3.43 a 1.67,1.65 -2.8 0 0 -0.77,-0.69 l -0.55,-0.25 a 0.3,0.28 3.6 0 1 -0.14,-0.15 q -0.07,-0.21 0.06,-0.48 0.15,-0.3 0.47,-0.05 0.49,0.39 0.51,0.39 a 0.34,0.33 -7.8 0 0 0.37,-0.48 q -1.1,-2.18 -2.32,-3.41 -0.88,-0.89 -0.13,-1.48 a 0.55,0.55 0 0 0 0.1,-0.76 l -1.44,-1.94 a 0.18,0.18 0 0 0 -0.32,0.11 q 0.01,1.29 1.07,5.12 a 0.53,0.53 0 0 0 0.37,0.37 q 0.24,0.07 0.49,0.25 a 0.36,0.36 0 0 1 0,0.59 q -0.57,0.38 0.06,2.07 0.79,2.09 1.73,3.11 3.2,3.49 5.15,5.01 a 0.29,0.29 0 0 0 0.44,-0.35 z m -83.2,19.28 q -1.16,-0.57 -0.04,-2.24 a 1.68,1.64 64.4 0 0 0.28,-0.82 q 0.11,-1.9 -0.89,-3.68 a 0.31,0.31 0 0 0 -0.57,0.04 q -0.56,1.52 0.25,2.65 a 0.91,0.9 -54.4 0 1 0.13,0.81 q -0.55,1.78 -1.6,2.46 a 1.27,1.27 0 0 0 -0.53,0.72 l -0.84,3.23 q -1.15,1.09 -0.61,2.15 a 0.28,0.28 0 0 0 0.51,-0.04 l 0.48,-1.55 q 0.88,1.05 0.31,2.28 a 0.95,0.95 0 0 1 -0.77,0.54 q -0.18,0.01 -0.39,0.08 -0.48,0.14 -0.5,0.76 -0.09,2.1 -1.05,2.55 a 0.66,0.66 0 0 0 -0.36,0.4 l -2.05,6.73 a 1.02,1.01 42.6 0 0 0.03,0.69 q 0.34,0.85 -0.48,1.11 a 1.18,1.15 -88.2 0 0 -0.73,0.7 q -1.14,3.13 -2.46,8.61 -0.25,1.02 0,1.99 0.33,1.27 -0.29,1.97 a 0.6,0.59 -50.1 0 0 0.07,0.84 q 0.56,0.46 0.24,1.29 a 0.31,0.31 0 0 1 -0.54,0.07 q -0.23,-0.33 -0.26,-0.6 a 0.33,0.33 0 0 0 -0.46,-0.26 q -0.26,0.11 -0.37,0.55 -0.1,0.38 -0.07,0.51 0.28,1.06 -0.47,1.3 a 0.54,0.54 0 0 0 -0.36,0.41 l -0.6,3.07 a 1.35,1.31 38.4 0 0 0.11,0.85 q 0.5,1.07 0.24,1.83 a 0.33,0.33 0 0 1 -0.58,0.09 l -0.33,-0.45 a 0.52,0.52 0 0 0 -0.94,0.26 l -0.27,2.76 a 0.48,0.47 -84.7 0 0 0.43,0.53 q 0.14,0.02 0.65,-0.27 a 0.44,0.44 0 0 0 0.19,-0.57 q -0.32,-0.67 -0.27,-1.18 a 0.51,0.51 0 0 1 0.99,-0.12 q 0.57,1.78 -0.55,2.79 a 0.98,0.98 0 0 1 -0.94,0.21 q -0.99,-0.29 -1.12,0.61 -0.4,2.63 -1.97,4.76 -0.46,0.61 -0.47,1.91 a 0.21,0.21 0 0 0 0.34,0.17 l 0.3,-0.22 a 0.26,0.26 0 0 1 0.42,0.21 l 0.05,5.86 a 0.11,0.11 0 0 1 -0.19,0.07 q -0.03,-0.05 -0.11,-0.12 -0.28,-0.22 -0.28,-0.12 -0.01,0.17 -0.06,0.24 a 0.11,0.11 0 0 1 -0.19,-0.07 q 0.01,-0.53 -0.39,-0.64 a 0.53,0.53 0 0 1 -0.3,-0.81 q 0.88,-1.35 0.48,-2.98 a 0.3,0.3 0 0 0 -0.59,0 q -1.52,6.42 -4.23,12.31 -0.29,0.64 -0.67,2.84 c -0.46,2.69 -1.74,5 -2.02,7.86 l -1.98,7.51 q -0.62,0.75 -0.59,1.19 l -1.16,5.24 a 0.55,0.45 -83.5 0 1 -0.45,0.44 q -0.07,0 -0.34,-0.09 -0.36,-0.13 -0.41,0.57 -0.09,1.12 0.51,2.38 a 1.71,1.67 32.2 0 1 0.16,0.67 l 0.17,3.89 q -0.05,0.92 -0.44,1.49 a 0.51,0.51 0 0 1 -0.83,0.01 q -0.46,-0.62 -0.58,-1.5 a 0.34,0.33 50.8 0 0 -0.65,-0.07 c -1.19,3.42 -2.49,4.78 -1.4,9.06 q 0.37,1.45 0.19,2.48 a 0.32,0.32 0 0 1 -0.57,0.14 l -0.89,-1.22 a 0.19,0.19 0 0 0 -0.34,0.13 q 0.07,0.77 -0.35,0.75 a 0.99,0.98 13 0 0 -0.95,0.59 q -2.1,4.82 -3.55,11.8 c -0.41,1.99 0.45,3.94 0.08,6.08 a 0.24,0.23 -58 0 1 -0.42,0.1 l -0.87,-1.16 a 0.15,0.15 0 0 0 -0.26,0.04 l -3.05,9.26 q -0.44,1.01 -0.43,1.97 -0.89,1.22 -0.63,2.06 a 0.6,0.59 65.3 0 1 -0.24,0.67 q -0.94,0.6 -1.28,2.09 -1.11,4.91 -1.65,5.81 -0.48,0.8 -1.96,6.51 a 0.28,0.28 0 0 0 0.16,0.34 q 0.16,0.07 0.18,0.08 a 1.12,1.12 0 0 1 0.51,0.77 q 0.5,2.86 -0.75,4.98 a 0.24,0.24 0 0 1 -0.45,-0.13 q 0.12,-3.99 0.12,-4.01 a 0.21,0.21 0 0 0 -0.4,-0.01 q -1.24,3.04 -0.82,3.98 a 0.54,0.53 53.4 0 1 -0.08,0.58 l -1.25,1.44 a 0.87,0.73 78.4 0 0 -0.15,0.28 q -1.05,3.98 -2.57,10.31 -0.35,1.45 0.47,2.52 0.54,0.71 0.55,0.93 0,0.13 -0.02,1.29 a 0.36,0.35 -69.9 0 1 -0.58,0.27 q -1.51,-1.26 -1.06,-2.53 a 0.26,0.25 -72.9 0 0 -0.17,-0.33 h -0.02 a 0.18,0.17 16.1 0 0 -0.21,0.11 c -0.78,2.53 -3.44,6.27 -1.16,8.59 a 1.62,1.62 0 0 1 0.43,0.83 q 0.2,1.06 0.01,2.09 l -0.18,0.39 a 0.45,0.45 0 0 1 -0.84,-0.07 l -0.89,-3.1 a 0.16,0.16 0 0 0 -0.31,0.02 l -0.47,3.21 a 0.25,0.24 -87 0 0 0.25,0.28 q 0.14,-0.01 0.41,0.11 a 0.71,0.71 0 0 1 0.41,0.79 l -0.99,5.08 a 0.22,0.22 0 0 1 -0.22,0.18 l -0.25,-0.01 a 0.31,0.3 4.2 0 1 -0.3,-0.34 l 0.55,-5.17 a 0.18,0.18 0 0 0 -0.16,-0.2 h -0.01 a 0.22,0.21 -75.2 0 0 -0.25,0.15 l -3.39,10.87 -0.66,7.96 a 0.23,0.22 -86 0 1 -0.23,0.21 l -0.27,-0.01 a 0.35,0.34 -80.5 0 1 -0.32,-0.45 q 0.28,-0.86 0.31,-1.31 a 0.47,0.46 -31.6 0 0 -0.89,-0.21 q -1.02,2.39 -0.85,4.54 a 1.09,1.06 51.3 0 1 -0.04,0.41 l -1.08,4.11 a 0.35,0.35 0 0 0 0.39,0.43 q 0.43,-0.07 0.53,0.13 a 0.44,0.34 -64.5 0 1 0.04,0.18 q -0.04,3.14 -1.9,5.74 -0.13,0.19 -0.02,0.48 0.1,0.28 0.38,0.39 a 0.44,0.43 22 0 0 0.58,-0.24 q 1.55,-3.91 2.63,-7.75 0.39,-1.4 0.71,-1.97 a 2.96,2.84 -27.6 0 0 0.38,-1.13 q 0.37,-3.12 1.86,-6.11 0.2,-0.4 0.02,-0.8 -0.08,-0.18 -0.5,-0.17 a 0.64,0.64 0 0 1 -0.64,-0.67 l 0.13,-2.76 q 0.27,-2.82 1.67,-5.23 a 0.33,0.33 0 0 1 0.61,0.22 l -1.31,6.71 a 0.28,0.27 11.7 0 0 0.22,0.32 l 0.34,0.06 a 0.1,0.09 -72.6 0 0 0.11,-0.06 l 5.14,-15.29 3.47,-11.71 a 1,0.66 -33.7 0 1 0.05,-0.12 q 1,-2.14 2.28,-6.14 3.18,-9.91 5.06,-16.35 0.07,-0.23 0.92,-2.35 0.53,-1.3 1.18,-4.22 0.56,-2.51 2.78,-8.12 c 2.15,-5.44 3.02,-9.47 4.77,-15.27 0.92,-3.09 2.28,-5.52 2.98,-8.45 1.33,-5.6 3.69,-11.15 5.38,-16.75 l 3.36,-9.9 1.52,-4.2 0.01,-3.15 a 1.17,1.17 0 0 1 0.4,-0.88 q 0.73,-0.64 0.88,-1.07 1.72,-4.86 3.35,-9.73 l 4.56,-14.71 0.36,-1.06 4.17,-12.16 a 0.53,0.53 0 0 0 -0.36,-0.68 c -1.34,-0.38 -1.77,-1.89 -0.58,-2.7 a 0.41,0.41 0 0 1 0.64,0.36 q -0.07,1.22 0.34,1.39 a 0.58,0.57 18.6 0 0 0.76,-0.37 q 2.51,-8.67 2.6,-9.1 0.44,-1.95 -0.86,-2.59 a 0.88,0.88 0 0 1 -0.49,-0.72 c -0.33,-3.76 -0.53,-5.08 0.81,-7.89 a 1.07,1.06 -79.9 0 1 0.85,-0.6 c 0.77,-0.07 1.11,0.32 2.01,0.01 q 1.48,-0.51 1.51,-2.03 l 2.41,-6.89 1.78,-5 q 1.33,-4.96 2.55,-9.91 0.36,-1.47 1.59,-3.74 a 2.54,2.5 -32.3 0 0 0.31,-1.32 q -0.04,-0.8 1.35,-4.45 1.2,-3.17 4.77,-14.42 a 0.65,0.64 10.7 0 0 -0.57,-0.83 q -0.68,-0.06 -0.65,-1.24 a 1.52,1.52 0 0 1 0.38,-0.98 q 0.86,-0.95 1.1,-1.64 a 0.44,0.44 0 0 0 -0.76,-0.41 q -1.13,1.43 -1.62,3.2 a 1.84,1.79 -44.3 0 0 -0.02,0.88 q 0.44,1.98 -0.17,3.42 -0.94,2.21 -0.86,3.24 0.05,0.66 -1.44,5.53 a 0.28,0.28 0 0 1 -0.55,-0.09 q 0.1,-3 -1.26,-5.8 a 0.17,0.17 0 0 0 -0.32,0.06 q -0.01,0.21 -0.01,0.33 a 3.17,3.07 -53.5 0 0 0.14,1.05 q 0.85,2.58 0.37,5.83 a 0.57,0.56 -67.2 0 0 0.21,0.53 q 0.16,0.12 0.49,0.07 a 0.27,0.27 0 0 1 0.3,0.35 l -0.12,0.4 a 0.44,0.43 -56.2 0 1 -0.75,0.15 q -0.32,-0.39 -0.65,-0.15 -0.32,0.22 -0.37,0.61 c -0.21,1.82 -1.58,3.32 -0.87,4.84 q 0.45,0.97 -0.31,1.44 a 1.51,1.49 75.3 0 0 -0.7,1.22 q -0.08,3.05 -1.48,5.86 z m 79.45,-29.45 q -0.4,-1.86 -1.43,-3.34 a 0.54,0.53 60.9 0 0 -0.65,-0.19 l -0.23,0.1 a 0.17,0.17 0 0 0 -0.09,0.23 l 1.5,3.49 a 0.48,0.48 0 0 0 0.9,-0.29 z m -0.2328,1.4129 a 2.15,0.4 -117.5 0 0 0.638,2.0918 2.15,0.4 -117.5 0 0 1.3476,1.7224 2.15,0.4 -117.5 0 0 -0.638,-2.0918 2.15,0.4 -117.5 0 0 -1.3476,-1.7224 z M 195.92,269.29 q 0.15,-0.59 0.07,-1 a 0.31,0.3 48.5 0 0 -0.59,-0.04 q -0.23,0.72 -0.17,1.02 a 0.35,0.35 0 0 0 0.69,0.02 z m 75.77,11.59 q 1.18,1.86 3.2,3.01 a 1.3,1.25 5 0 1 0.53,0.61 l 0.84,2.04 q -0.24,0.8 -0.81,0.25 a 1,0.99 29.9 0 1 -0.27,-0.97 q 0.25,-0.98 -1.01,-1.02 a 1.21,1.19 66 0 1 -0.71,-0.28 l -1.79,-1.56 a 0.32,0.32 0 0 0 -0.51,0.36 q 0.79,2.15 1.86,2.04 a 0.51,0.49 77.5 0 1 0.52,0.34 l 0.44,1.23 a 1.05,1.04 -85.1 0 0 0.46,0.55 l 3.13,1.85 q -0.93,1.49 0.37,2.54 a 0.27,0.26 78.8 0 1 -0.29,0.44 q -1.35,-0.75 -1.53,-1.95 a 0.92,0.91 -73.7 0 0 -0.3,-0.55 l -2.07,-1.8 a 0.53,0.53 0 0 0 -0.82,0.65 l 1.07,2.02 a 0.74,0.66 -86.6 0 0 0.15,0.19 l 3.83,3.09 a 0.78,0.76 28.2 0 1 0.26,0.82 q -0.08,0.29 -0.08,0.31 -0.06,0.29 0.43,0.79 1.78,1.83 2.11,3.49 a 0.31,0.3 -75.9 0 1 -0.49,0.3 q -2.44,-2.05 -2.88,-4.53 a 0.99,0.94 -75.6 0 0 -0.31,-0.56 l -1.92,-1.67 a 0.38,0.38 0 0 0 -0.58,0.46 q 2.07,3.83 2.86,6.93 1.62,6.4 1.87,6.53 0.11,0.06 4.38,13.03 0.2,-1.81 -0.35,-3.39 a 2.42,2.39 -52.8 0 1 -0.13,-0.99 q 0.4,-4.34 -2.2,-8.16 -0.81,-1.18 -0.41,-2.07 a 0.64,0.63 28.3 0 0 -0.25,-0.82 q -1.62,-0.97 -2.19,-3.99 a 0.4,0.4 0 0 1 0.72,-0.3 q 0.9,1.29 1.69,1.12 a 0.24,0.23 12.6 0 1 0.24,0.37 q -0.06,0.08 -0.26,0.17 a 0.37,0.37 0 0 0 -0.14,0.58 l 1.57,1.91 a 1.26,1.16 -78 0 1 0.23,0.39 l 3.41,9.13 a 0.25,0.25 0 0 0 0.48,-0.09 q -0.01,-2.13 -0.93,-3.94 -1.91,-3.75 -3.03,-8.75 c -0.75,-3.35 -2.02,-6.35 -3.08,-8.91 a 4.51,4.14 31.3 0 1 -0.26,-0.9 q -0.79,-4.5 -3.26,-8.41 0.57,-3.16 -1.71,-5.43 a 1.73,1.67 -11.4 0 0 -0.61,-0.39 q -2.38,-0.89 -3.75,-3.08 a 0.39,0.39 0 0 0 -0.71,0.3 q 0.81,3.48 2.99,6.67 z m -80.13,7.07 2.43,-10.4 a 0.21,0.21 0 0 0 -0.39,-0.13 q -2.47,5.02 -2.88,10.23 a 0.39,0.38 9.4 0 0 0.3,0.42 l 0.26,0.06 a 0.24,0.24 0 0 0 0.28,-0.18 z m 30.55,38.53 q -0.32,1.94 0.37,2.53 0.73,4 1.3,7.98 0.55,3.9 2.76,6.48 a 1.27,1.27 0 0 0 2.08,-0.21 l 2.31,-4.13 a 0.92,0.84 68.8 0 0 0.1,-0.26 l 1.92,-9.89 a 8.44,7.63 -42.1 0 0 0.14,-1.38 l 0.03,-1.81 a 0.46,0.46 0 0 0 -0.81,-0.31 l -0.45,0.51 a 0.45,0.45 0 0 1 -0.64,0.05 l -0.51,-0.44 a 0.38,0.37 -57.1 0 0 -0.59,0.13 q -1.28,2.89 0.31,3.88 1.29,1.95 -0.64,0.49 a 1.1,1.09 -72 0 1 -0.43,-0.85 l -0.08,-3.24 a 1.03,1.02 -22.9 0 0 -1.74,-0.7 l -1.86,1.83 a 0.36,0.36 0 0 1 -0.61,-0.25 q -0.01,-0.5 0.85,-0.75 0.69,-0.21 0.68,-0.92 -0.04,-5.06 0.2,-10.1 2.72,-0.76 5.49,-0.36 a 0.48,0.47 6.3 0 0 0.54,-0.43 q 0.36,-3.87 -0.96,-6.91 a 3.01,2.97 32.9 0 1 -0.26,-1.17 q -0.11,-5.56 -3.48,-10.13 a 1.29,1.29 0 0 0 -2.17,0.13 c -2.25,4.02 -2.56,9 -3.31,13.45 -0.9,5.34 -0.69,11.23 -0.54,16.78 z m -0.16,-28.98 a 2.61,0.6 0 0 0 -2.61,-0.6 2.61,0.6 0 0 0 -2.61,0.6 2.61,0.6 0 0 0 2.61,0.6 2.61,0.6 0 0 0 2.61,-0.6 z m -0.2201,1.9082 a 3.12,0.67 -0.4 0 0 -3.1246,-0.6482 3.12,0.67 -0.4 0 0 -3.1152,0.6918 3.12,0.67 -0.4 0 0 3.1246,0.6482 3.12,0.67 -0.4 0 0 3.1152,-0.6918 z m -0.8193,2.5891 a 0.88,0.88 0 0 0 -0.8661,-0.8937 l -4.2595,-0.0669 a 0.88,0.88 0 0 0 -0.8937,0.866 l -0.002,0.12 a 0.88,0.88 0 0 0 0.8661,0.8937 l 4.2595,0.0669 a 0.88,0.88 0 0 0 0.8937,-0.866 z m -0.5795,2.9728 a 0.91,0.91 0 0 0 -0.8695,-0.9489 l -4.136,-0.1805 a 0.91,0.91 0 0 0 -0.9488,0.8694 l -0.008,0.1798 a 0.91,0.91 0 0 0 0.8695,0.9489 l 4.136,0.1805 a 0.91,0.91 0 0 0 0.9488,-0.8694 z m -0.1781,2.8718 a 0.85,0.85 0 0 0 -0.8121,-0.8863 l -4.7954,-0.2093 a 0.85,0.85 0 0 0 -0.8863,0.8121 l -0.0122,0.2797 a 0.85,0.85 0 0 0 0.8121,0.8863 l 4.7954,0.2093 a 0.85,0.85 0 0 0 0.8863,-0.8121 z m -0.0321,3.0209 a 0.91,0.91 0 0 0 -0.8875,-0.9319 l -4.9585,-0.1212 a 0.91,0.91 0 0 0 -0.9319,0.8875 l -0.004,0.16 a 0.91,0.91 0 0 0 0.8875,0.9319 l 4.9585,0.1212 a 0.91,0.91 0 0 0 0.9319,-0.8875 z m -0.2972,3.2655 a 0.96,0.96 0 0 0 -0.9225,-0.9961 l -4.7565,-0.1827 a 0.96,0.96 0 0 0 -0.9961,0.9224 l -0.0123,0.3198 a 0.96,0.96 0 0 0 0.9225,0.9961 l 4.7565,0.1827 a 0.96,0.96 0 0 0 0.9961,-0.9224 z m -99.9037,7.2117 0.18,2 a 0.33,0.32 5.4 0 0 0.24,0.28 l 0.38,0.12 a 0.33,0.33 0 0 0 0.43,-0.33 c -0.1,-2.16 -0.46,-5.96 1.62,-7.78 a 0.33,0.33 0 0 0 0.04,-0.46 l -0.09,-0.12 a 0.41,0.41 0 0 0 -0.61,-0.03 q -1.07,1.08 -1.37,2.44 a 0.46,0.46 0 0 1 -0.81,0.19 q -0.33,-0.41 -0.12,-1.82 a 0.82,0.82 0 0 0 -0.72,-0.93 q -4.93,-0.56 -6.42,4.58 a 1.1,1.09 -86.4 0 0 1.22,1.39 q 0.01,-0.01 0.41,0.06 0.22,0.03 0.39,0.25 0.28,0.35 0.23,0.75 a 0.75,0.72 -15.7 0 0 1.19,0.64 q 0.89,-0.68 1.61,0 a 0.59,0.59 0 0 0 0.88,-0.09 l 0.88,-1.26 a 0.24,0.24 0 0 1 0.44,0.12 z m 204.59,-1.03 2.08,2.81 a 0.88,0.86 63.6 0 0 0.93,0.32 q 0.95,-0.26 1.57,-0.12 a 1.17,1.08 83.7 0 0 1.19,-1.62 q -0.43,-1.03 0.08,-1.97 a 0.18,0.18 0 0 1 0.21,-0.09 l 0.35,0.11 a 0.41,0.4 -69.9 0 1 0.25,0.55 q -0.54,1.27 -0.52,1.79 a 0.48,0.48 0 0 0 0.64,0.43 q 1.49,-0.53 1.27,-1.67 a 0.87,0.86 -14.3 0 1 0.6,-1 q 0.1,-0.03 0.17,-0.05 a 0.71,0.7 -22.3 0 0 0.41,-0.96 q -0.52,-1.11 -1.68,-2.22 a 1.82,1.8 72.9 0 0 -0.84,-0.45 l -4.71,-1.12 a 0.69,0.68 -7 0 0 -0.77,0.98 q 1.18,2.28 -1.12,3.72 a 0.4,0.39 -34.6 0 0 -0.11,0.56 z m -105.0024,-3.1511 a 0.73,0.73 0 0 0 -0.7325,-0.7274 l -4.9,0.0171 a 0.73,0.73 0 0 0 -0.7275,0.7325 l 0.005,1.36 a 0.73,0.73 0 0 0 0.7325,0.7274 l 4.9,-0.0171 a 0.73,0.73 0 0 0 0.7275,-0.7325 z M 123.88,320.35 q -0.02,-1.4 0.18,-2.81 a 0.22,0.22 0 0 0 -0.38,-0.18 q -0.52,0.53 -0.56,1.36 -0.03,0.79 -0.02,1.57 0.07,1.4 -0.12,2.82 a 0.22,0.22 0 0 0 0.37,0.17 q 0.52,-0.53 0.56,-1.35 0.04,-0.8 -0.03,-1.58 z m 161.88,-3.34 1.39,4.14 a 0.11,0.11 0 0 0 0.14,0.07 l 0.04,-0.02 a 1.91,1.61 71.4 0 0 0.92,-2.32 L 288,318.16 a 1.91,1.61 71.4 0 0 -2.13,-1.3 l -0.04,0.02 a 0.11,0.11 0 0 0 -0.07,0.13 z m -139.98,3.61 q 0.24,-2.05 0.59,-2.46 a 0.67,0.67 0 0 0 -0.81,-1.03 q -1.32,0.68 -1.7,0.36 a 1.36,1.28 17.2 0 0 -2.22,1.09 q 0.08,0.57 0.33,1.84 a 0.82,0.82 0 0 0 0.78,0.66 l 2.42,0.06 a 0.6,0.59 -85.2 0 0 0.61,-0.52 z m 3.11,-2.34 q 1.12,1.75 0.96,2.8 a 0.45,0.45 0 0 0 0.84,0.29 q 0.66,-1.1 0.06,-2.72 a 0.41,0.4 -28.3 0 1 0.14,-0.46 l 0.46,-0.34 a 0.36,0.35 61.6 0 0 0.12,-0.42 q -0.18,-0.47 -0.78,-0.31 -1.26,0.34 -2.23,0.03 a 1.22,1.21 6.6 0 0 -1.6,1.26 l 0.25,2.83 a 0.33,0.33 0 0 0 0.63,0.11 q 0.76,-1.58 0.66,-2.9 a 0.27,0.27 0 0 1 0.49,-0.17 z m 4.41,2.09 1.62,-2.78 a 0.26,0.26 0 0 0 -0.09,-0.35 l -0.15,-0.09 a 1.89,1.87 30.2 0 0 -2.57,0.67 1.89,1.87 30.2 0 0 0.69,2.56 l 0.15,0.09 a 0.26,0.26 0 0 0 0.35,-0.1 z m 42.5168,-3.4689 a 2.33,1.07 -91.8 0 0 -0.9963,2.3625 2.33,1.07 -91.8 0 0 1.1427,2.2953 2.33,1.07 -91.8 0 0 0.9963,-2.3625 2.33,1.07 -91.8 0 0 -1.1427,-2.2953 z M 291.6,320.54 q -0.25,-1.81 -1.11,-3.31 a 0.52,0.51 65.6 0 0 -0.6,-0.22 l -0.23,0.08 a 0.17,0.17 0 0 0 -0.11,0.21 l 1.16,3.44 a 0.46,0.46 0 0 0 0.89,-0.2 z m 4.35,-1.17 q 0,-0.04 -0.15,-0.31 a 0.72,0.71 65.7 0 1 0.38,-1.02 q 0.93,-0.33 2.13,0.21 a 0.7,0.69 -54.3 0 0 0.76,-0.13 q 0.29,-0.26 0.51,-0.26 a 0.91,0.91 0 0 1 0.89,1.01 q -0.07,0.63 -0.03,2.43 a 0.34,0.33 -33.4 0 0 0.64,0.13 q 0.35,-0.79 0.61,-2.97 a 0.55,0.55 0 0 1 1.05,-0.16 q 0.5,1.12 -0.04,2.67 a 0.52,0.51 28.3 0 0 0.18,0.59 q 0.2,0.15 1.13,0.06 a 0.41,0.41 0 0 0 0.34,-0.59 q -0.25,-0.51 -0.26,-1.81 a 0.41,0.4 -80.6 0 1 0.54,-0.39 l 0.78,0.28 a 0.85,0.84 89 0 1 0.49,0.48 q 0.45,1.19 -0.6,1.28 a 0.2,0.2 0 0 0 -0.06,0.39 q 1.06,0.46 1.95,0.4 a 0.51,0.5 -8.3 0 0 0.46,-0.61 q -0.42,-1.85 0.62,-3.38 a 0.53,0.53 0 0 0 -0.47,-0.83 l -8.23,0.43 a 0.01,0.01 0 0 1 -0.02,0 q -2.32,-0.41 -4.91,0.04 -0.61,0.1 -1.19,-0.15 -1.06,-0.47 -1.54,0.21 a 0.28,0.27 -41.4 0 0 -0.02,0.29 l 1.47,2.88 a 0.23,0.23 0 0 0 0.43,-0.11 l -0.04,-2.07 a 0.64,0.64 0 0 1 1.22,-0.29 l 0.63,1.36 a 0.19,0.18 35.2 0 0 0.35,-0.06 z m 12.83,-1.51 q 0.51,0.91 0.31,2.97 a 0.53,0.52 -82.1 0 0 0.42,0.56 l 0.07,0.01 a 0.5,0.49 12.5 0 0 0.59,-0.37 q 0.56,-2.29 1.15,-3.08 a 0.57,0.57 0 0 0 -0.27,-0.89 q -0.84,-0.29 -2,0.09 a 0.49,0.49 0 0 0 -0.27,0.71 z m -178.2,-0.08 a 0.28,0.28 0 0 0 -0.06,-0.49 q -0.64,-0.24 -1.58,-0.01 a 0.4,0.4 0 0 0 -0.19,0.67 q 0.56,0.58 0.02,2.78 a 0.35,0.34 15.9 0 0 0.23,0.4 l 0.31,0.09 a 0.34,0.33 14.8 0 0 0.42,-0.24 q 0.31,-1.47 -0.04,-2.04 a 0.43,0.43 0 0 1 0.11,-0.58 z m 2.97,-0.39 q -0.77,-0.36 -1.55,0.15 a 0.61,0.58 -17.1 0 0 -0.28,0.5 l -0.08,3.01 a 0.26,0.25 -80.3 0 0 0.16,0.24 l 0.48,0.17 a 0.39,0.39 0 0 0 0.52,-0.4 q -0.17,-2.24 0.82,-3.03 a 0.38,0.38 0 0 0 -0.07,-0.64 z m 3.6,1.36 0.63,1.8 a 0.91,0.91 0 0 0 1.73,-0.06 q 0.23,-0.8 0.11,-2.12 a 0.99,0.87 -14.3 0 0 -1.32,-0.68 q -0.98,0.39 -1.81,-0.17 a 1.25,1.03 7.8 0 0 -1.89,1.17 q 0.35,0.64 0.09,2.28 a 0.47,0.47 0 0 0 0.9,0.25 q 0.55,-1.36 0.51,-2.26 a 0.54,0.54 0 0 1 1.05,-0.21 z m 61.3142,-1.4898 a 2.11,0.52 -90.7 0 0 -0.4942,2.1162 2.11,0.52 -90.7 0 0 0.5458,2.1034 2.11,0.52 -90.7 0 0 0.4942,-2.1162 2.11,0.52 -90.7 0 0 -0.5458,-2.1034 z m 3.8858,1.8998 q 0.2,-0.02 0.39,0.09 a 0.34,0.32 -77.3 0 1 0.18,0.3 q -0.05,1.97 0.75,1.88 a 0.3,0.29 -3.3 0 0 0.27,-0.29 l 0.09,-3.35 a 0.42,0.42 0 0 0 -0.64,-0.36 q -1.02,0.65 -2.58,0.13 a 0.58,0.58 0 0 0 -0.76,0.49 q -0.18,1.69 0.33,3.05 a 0.5,0.5 0 0 0 0.83,0.16 q 0.72,-0.75 0.89,-1.93 0.03,-0.15 0.25,-0.17 z m 3.37,1.46 a 0.35,0.35 0 0 0 0.67,0.02 q 0.71,-2.05 -0.25,-3.1 a 0.66,0.66 0 0 0 -1.12,0.63 z m 38.17,0.18 a 0.47,0.47 0 0 0 0.93,0.12 q 0.24,-1.07 0.84,-1.17 a 0.59,0.58 -13.5 0 1 0.66,0.4 q 0.29,0.9 0.62,1.04 a 0.62,0.62 0 0 0 0.81,-0.32 q 0.62,-1.44 0.28,-3.26 a 0.54,0.54 0 0 0 -0.76,-0.4 q -0.47,0.21 -2.44,-0.05 a 0.77,0.77 0 0 0 -0.87,0.75 z m 6.66,-2.38 q 1.29,0.73 1.65,2.29 a 0.3,0.3 0 0 0 0.56,0.06 q 0.52,-1.1 0.31,-2.74 a 0.82,0.81 87.1 0 0 -0.78,-0.71 l -2.7,-0.07 a 0.84,0.84 0 0 0 -0.83,0.59 q -0.5,1.59 0.48,3.2 a 0.44,0.44 0 0 0 0.76,-0.03 q 0.44,-0.87 0.1,-2.25 a 0.31,0.31 0 0 1 0.45,-0.34 z m 4.72,-0.34 q -0.04,-0.31 -0.36,-0.61 a 0.59,0.52 27.2 0 0 -0.96,0.25 q -0.2,1.49 0.25,3.11 a 0.61,0.6 79.1 0 0 0.64,0.44 q 0.54,-0.04 0.71,-0.33 a 0.68,0.68 0 0 1 0.92,-0.24 q 0.89,0.52 3.01,0.42 a 0.55,0.55 0 0 0 0.42,-0.88 l -1.84,-2.49 a 0.89,0.87 -25.3 0 0 -0.93,-0.32 q -0.76,0.2 -1.32,0.83 a 0.31,0.31 0 0 1 -0.54,-0.18 z m 57.44,3.42 q 0.52,0.04 1.28,-3.46 a 0.66,0.65 16.8 0 0 -0.4,-0.74 q -0.21,-0.08 -0.6,-0.11 -0.39,-0.02 -0.6,0.03 a 0.66,0.65 -9.3 0 0 -0.5,0.69 q 0.31,3.56 0.82,3.59 z m 6.28,0.21 a 0.54,0.54 0 0 0 1.03,-0.28 l -0.72,-4.21 a 0.19,0.19 0 0 0 -0.22,-0.15 l -0.28,0.04 a 0.6,0.6 0 0 0 -0.5,0.57 q -0.06,2.03 0.69,4.03 z m 4.11,1.12 q -0.08,-1.85 0.35,-2.35 a 0.6,0.6 0 0 0 -0.05,-0.82 q -0.92,-0.87 0.08,-1.72 a 0.35,0.35 0 0 0 -0.06,-0.57 q -0.51,-0.28 -0.57,-0.27 a 0.91,0.9 -3.7 0 0 -0.82,0.93 l 0.11,4.49 a 0.45,0.43 15.6 0 0 0.23,0.38 l 0.32,0.19 a 0.28,0.27 -76.5 0 0 0.41,-0.26 z m -135.9954,-4.8295 a 0.44,0.44 0 0 0 -0.4788,-0.3975 l -1.1749,0.109 a 0.44,0.44 0 0 0 -0.3975,0.4787 l 0.242,2.6088 a 0.44,0.44 0 0 0 0.4788,0.3975 l 1.1749,-0.109 a 0.44,0.44 0 0 0 0.3975,-0.4787 z m 4.5254,0.1495 a 0.47,0.46 12.6 0 0 -0.43,-0.67 l -0.64,0.01 a 0.62,0.62 0 0 0 -0.6,0.63 l 0.07,2.89 a 0.65,0.64 -0.9 0 0 0.66,0.63 l 0.43,-0.01 a 0.37,0.37 0 0 0 0.32,-0.53 q -0.64,-1.3 0.19,-2.95 z m 2.39,3.18 -0.07,-3.39 a 0.43142207,0.43142207 0 0 0 -0.86,-0.07 l -0.52,2.71 a 0.89,0.89 0 0 0 0.7,1.04 l 0.33,0.07 a 0.36,0.35 4 0 0 0.42,-0.36 z m 14.5453,-4.0597 a 2.02,0.6 -89 0 0 -0.6352,2.0092 2.02,0.6 -89 0 0 0.5646,2.0302 2.02,0.6 -89 0 0 0.6352,-2.0092 2.02,0.6 -89 0 0 -0.5646,-2.0302 z M 229.89,321.03 q 0.81,-0.02 0.44,-3.24 -0.02,-0.23 -0.15,-0.32 -0.16,-0.11 -0.36,-0.1 -0.19,0 -0.35,0.12 -0.13,0.09 -0.14,0.32 -0.24,3.23 0.56,3.22 z m 3.02,-1.2 -0.05,-1.92 a 0.31,0.31 0 0 0 -0.55,-0.18 q -0.54,0.69 0.1,2.21 a 0.26,0.26 0 0 0 0.5,-0.11 z m 9.6841,-2.5986 a 1.93,0.57 -87.8 0 0 -0.6437,1.9067 1.93,0.57 -87.8 0 0 0.4955,1.9505 1.93,0.57 -87.8 0 0 0.6437,-1.9067 1.93,0.57 -87.8 0 0 -0.4955,-1.9505 z m 74.1881,0.5772 a 0.53,0.53 0 0 0 -0.5899,-0.4625 l -0.814,0.0985 a 0.53,0.53 0 0 0 -0.4625,0.5898 l 0.382,3.157 a 0.53,0.53 0 0 0 0.5899,0.4625 l 0.814,-0.0985 a 0.53,0.53 0 0 0 0.4625,-0.5898 z M 126.13,319.44 c -0.03,0.49 -0.04,1.82 0.52,1.72 a 0.09,0.09 0 0 0 0.07,-0.11 q -0.11,-0.9 -0.07,-1.58 0.04,-0.68 0.26,-1.57 a 0.09,0.09 0 0 0 -0.06,-0.11 c -0.54,-0.17 -0.69,1.15 -0.72,1.65 z m 56.86,-0.28 q -0.2,0.96 -0.13,1.31 a 0.49,0.49 0 0 0 0.97,-0.08 q 0.03,-0.93 0.05,-1.05 0.03,-0.11 0.38,-0.98 a 0.49,0.49 0 0 0 -0.86,-0.46 q -0.21,0.3 -0.41,1.26 z m 4.96,0.45 q -0.03,1.41 0,1.57 a 0.49,0.49 0 0 0 0.96,0 q 0,-0.02 0.03,-1.55 0.03,-1.54 0.03,-1.55 a 0.49,0.49 0 0 0 -0.96,-0.04 q -0.03,0.16 -0.06,1.57 z m 47.84,0.88 q 0.21,-1.13 -0.12,-2.54 a 0.38,0.37 80.2 0 0 -0.4,-0.29 l -0.27,0.02 a 0.32,0.32 0 0 0 -0.29,0.35 l 0.22,2.42 a 0.43046487,0.43046487 0 0 0 0.86,0.04 z m 2.28,-0.42 q -0.25,-1.01 0.22,-1.8 a 0.36,0.36 0 0 0 -0.2,-0.53 l -0.39,-0.12 a 0.4,0.39 -76.9 0 0 -0.51,0.32 q -0.22,1.37 0.14,2.56 a 0.09,0.08 80.3 0 0 0.08,0.06 l 0.26,0.01 a 0.4,0.4 0 0 0 0.4,-0.5 z m 2.72,1.16 0.08,-3.14 a 0.39,0.39 0 0 0 -0.51,-0.38 l -0.5,0.18 a 0.91,0.9 -19.9 0 0 -0.55,1.16 l 0.81,2.28 a 0.35,0.34 36.2 0 0 0.67,-0.1 z m 57.92,-0.41 q 0.3,-0.47 -0.02,-1.79 a 0.26,0.26 0 0 0 -0.49,-0.06 q -0.16,0.33 0.08,1.76 a 0.24,0.23 56.7 0 0 0.43,0.09 z m -79.0846,0.1961 a 0.96,0.96 0 0 0 -0.9929,-0.9259 l -4.6172,0.1612 a 0.96,0.96 0 0 0 -0.9259,0.9929 l 0.0252,0.7196 a 0.96,0.96 0 0 0 0.9929,0.9259 l 4.6172,-0.1612 a 0.96,0.96 0 0 0 0.9259,-0.9929 z m 0.2674,3.7639 a 0.96,0.96 0 0 0 -0.9848,-0.9345 l -4.9583,0.1298 a 0.96,0.96 0 0 0 -0.9345,0.9848 l 0.012,0.4599 a 0.96,0.96 0 0 0 0.9848,0.9345 l 4.9583,-0.1298 a 0.96,0.96 0 0 0 0.9345,-0.9848 z m 69.2472,1.87 q -0.31,1.91 0.99,3.31 a 0.36,0.36 0 0 0 0.61,-0.37 l -1.06,-2.99 a 0.28,0.28 0 0 0 -0.54,0.05 z m -69.0504,1.7539 a 0.86,0.86 0 0 0 -0.8615,-0.8585 l -5.28,0.009 a 0.86,0.86 0 0 0 -0.8585,0.8615 l 8e-4,0.44 a 0.86,0.86 0 0 0 0.8615,0.8585 l 5.28,-0.009 a 0.86,0.86 0 0 0 0.8585,-0.8615 z m 74.3704,25.1561 3.66,10.33 3.11,9.32 a 3.08,2.91 18.3 0 0 0.47,0.87 q 1.45,1.9 1.88,5.22 a 8.01,7.83 -59.1 0 0 0.41,1.71 q 4.05,11.19 4.45,12.76 1.9,7.33 5.04,13.92 a 2.27,1.56 34.5 0 1 0.1,0.26 l 2.65,9.34 2,6.14 q 0.54,3.45 1.86,3.8 2.45,1.25 4.44,3.33 a 0.24,0.24 0 0 1 -0.03,0.36 l -0.25,0.19 a 0.23,0.22 -43.6 0 1 -0.27,0 q -2.24,-1.59 -3.63,-3.55 a 0.37,0.37 0 0 0 -0.65,0.34 l 3.77,10.94 2.53,6.72 q 0.55,2.93 2.05,5.1 -0.33,1.06 0.22,1.66 0.45,3.04 2.15,5.03 0.33,0.38 0.96,0.33 a 0.35,0.35 0 0 0 0.27,-0.54 q -0.21,-0.31 -0.2,-0.36 a 0.21,0.21 0 0 1 0.38,-0.11 q 0.16,0.22 0.2,0.22 a 0.67,0.66 89.9 0 0 0.76,-0.77 q -0.13,-0.9 -0.89,-1.13 0.77,-0.67 0.48,-1.51 l -0.8,-1.78 a 0.85,0.72 -85.1 0 0 -0.19,-0.27 l -3.22,-2.8 a 0.44,0.44 0 0 1 0.35,-0.77 q 0.97,0.13 1.96,1.11 a 0.36,0.36 0 0 0 0.59,-0.38 l -6.22,-17.47 a 0.39,0.37 52.2 0 1 0.03,-0.3 q 0.11,-0.19 0.13,-0.24 A 1.54,1.52 44.7 0 0 325,429.66 l -4.16,-12.88 q -1.85,-4.94 -3.4,-9.69 -0.28,-0.9 -1.16,-1.92 a 2.12,2.1 -71.3 0 1 -0.46,-0.94 c -1.32,-6.44 -3.87,-13.02 -6.01,-19.83 q -1.91,-6.09 -4.65,-11.96 a 4.4,4.28 25.8 0 1 -0.31,-0.85 l -2.17,-8.35 -3.47,-10.58 -4.87,-12.3 a 0.23,0.22 63.5 0 0 -0.32,-0.11 q -0.06,0.04 -0.29,0.18 a 0.3,0.3 0 0 1 -0.46,-0.29 l 0.32,-2.16 a 4.74,4.18 50.2 0 0 0.03,-1.08 q -0.15,-0.83 -1.83,-4.65 -0.85,-1.96 -2.01,-1.17 a 0.44,0.44 0 0 1 -0.61,-0.1 l -1.63,-2.2 a 0.53,0.53 0 0 0 -0.93,0.48 z m -74.2015,-21.883 a 0.81,0.81 0 0 0 -0.8156,-0.8044 l -4.9799,0.0348 a 0.81,0.81 0 0 0 -0.8043,0.8156 l 0.003,0.4 a 0.81,0.81 0 0 0 0.8156,0.8044 l 4.9799,-0.0348 a 0.81,0.81 0 0 0 0.8043,-0.8156 z m 0.7685,3.1297 a 0.87,0.87 0 0 0 -0.9313,-0.8039 l -5.1661,0.3794 a 0.87,0.87 0 0 0 -0.804,0.9313 l 0.007,0.0998 a 0.87,0.87 0 0 0 0.9313,0.8039 l 5.1661,-0.3794 a 0.87,0.87 0 0 0 0.804,-0.9313 z m 0.6704,2.9243 a 0.78,0.78 0 0 0 -0.8561,-0.6956 l -5.0133,0.518 a 0.78,0.78 0 0 0 -0.6957,0.8561 l 0.0103,0.0995 a 0.78,0.78 0 0 0 0.8561,0.6956 l 5.0133,-0.518 a 0.78,0.78 0 0 0 0.6957,-0.8561 z m 0.8061,2.6799 a 0.59,0.59 0 0 0 -0.6584,-0.5125 l -5.4181,0.6749 a 0.59,0.59 0 0 0 -0.5126,0.6584 l 0.0421,0.3374 a 0.59,0.59 0 0 0 0.6584,0.5125 l 5.4181,-0.6749 a 0.59,0.59 0 0 0 0.5126,-0.6584 z m 0.5759,3.1117 a 2.74,0.59 -1.2 0 0 -2.7518,-0.5325 2.74,0.59 -1.2 0 0 -2.727,0.6473 2.74,0.59 -1.2 0 0 2.7518,0.5325 2.74,0.59 -1.2 0 0 2.727,-0.6473 z M 330.6,458.78 a 0.28,0.27 -82.5 0 0 -0.42,0.33 q 1.46,3.14 2.23,5.95 c 0.6,2.16 2.12,1.58 3.16,2.4 q 1.84,1.44 2.38,5.02 a 0.25,0.25 0 0 0 0.32,0.19 l 0.35,-0.13 a 0.22,0.22 0 0 0 0.14,-0.28 l -2.27,-6.38 a 1.64,1.61 5.5 0 0 -0.72,-0.86 c -1.45,-0.83 -3.56,-2.01 -2.99,-3.7 a 0.79,0.78 30.6 0 0 -0.22,-0.84 z m 3.44,0.66 -1.23,-1.13 a 0.46,0.45 -69.9 0 0 -0.76,0.36 q 0,0.05 1.87,0.95 a 0.11,0.11 0 0 0 0.12,-0.18 z m 0.6,10.56 q 0.75,0.87 1.77,1.35 a 0.24129857,0.24129857 0 0 0 0.27,-0.4 q -0.84,-0.82 -1.42,-1.5 -0.58,-0.67 -1.27,-1.62 a 0.24,0.24 0 0 0 -0.43,0.21 q 0.32,1.08 1.08,1.96 z m 0.886,3.173 a 1.4,0.4 -144.8 0 0 0.9134,1.1339 1.4,0.4 -144.8 0 0 1.3746,0.4801 1.4,0.4 -144.8 0 0 -0.9134,-1.1339 1.4,0.4 -144.8 0 0 -1.3746,-0.4801 z m 4.144,1.797 q 0.08,-0.24 -0.06,-0.58 a 0.23,0.22 -55.1 0 0 -0.43,0.08 q -0.03,0.41 -0.01,0.49 a 0.26,0.26 0 0 0 0.5,0.01 z m -2.34,2.31 a 0.38,0.3 -86.2 0 0 0.43,-0.48 q -0.02,-0.08 -0.27,-0.34 a 0.22,0.21 -65.3 0 0 -0.37,0.14 q -0.03,0.5 0.21,0.68 z m 2.16,-1 q -0.04,0.09 0,0.44 a 0.12,0.12 0 0 0 0.21,0.07 q 0.11,-0.12 0.07,-0.47 a 0.15,0.15 0 0 0 -0.28,-0.04 z m 0.2,3.84 -1.64,-1.43 a 0.38,0.38 0 0 0 -0.57,0.5 q 0.63,0.99 2.07,1.23 a 0.17,0.17 0 0 0 0.14,-0.3 z m 1.86,0.83 q -0.06,-0.27 -0.16,-0.37 a 0.23,0.23 0 0 0 -0.39,0.08 q -0.04,0.1 0.07,0.44 a 0.25144582,0.25144582 0 0 0 0.48,-0.15 z m -1.01,2.48 q 1.07,0.64 2.06,1.46 a 0.2,0.19 -77.7 0 0 0.31,-0.2 q -0.16,-0.65 -0.77,-1.06 -0.59,-0.41 -1.19,-0.77 -1.1,-0.6 -2.08,-1.41 a 0.2,0.19 -77.7 0 0 -0.31,0.2 q 0.16,0.65 0.77,1.06 0.58,0.41 1.21,0.72 z m 1.42,3.3 q -0.11,-0.26 -1.6,-1.45 a 0.2,0.2 0 0 0 -0.3,0.25 q 0.51,0.97 1.58,1.5 a 0.24,0.23 1.6 0 0 0.32,-0.3 z m 1.72,1.77 -0.06,-0.23 a 0.34,0.34 0 0 0 -0.67,0.11 q 0.01,0.21 0.32,0.42 a 0.27,0.27 0 0 0 0.41,-0.3 z m -1.22,2.29 a 0.25,0.24 -85.8 0 0 0.37,-0.32 l -1.18,-1.59 a 0.2,0.2 0 0 0 -0.36,0.15 q 0.07,0.67 1.17,1.76 z m 1.57,-0.58 q 0.08,0.56 0.58,1.22 a 0.27,0.27 0 0 0 0.49,-0.14 q 0.05,-0.59 -0.64,-1.29 a 0.25,0.25 0 0 0 -0.43,0.21 z m -1.3441,3.0827 a 1.49,0.38 -142 0 0 0.9401,1.2167 1.49,0.38 -142 0 0 1.4081,0.6179 1.49,0.38 -142 0 0 -0.9401,-1.2167 1.49,0.38 -142 0 0 -1.4081,-0.6179 z m 2.8841,2.3073 0.89,0.62 a 0.31,0.31 0 0 0 0.45,-0.42 q -0.23,-0.37 -1.05,-0.72 a 0.3,0.3 0 0 0 -0.29,0.52 z m -0.63,1.66 -1.04,-0.72 a 0.3,0.29 36.8 0 0 -0.4,0.05 q -0.27,0.34 -0.01,0.61 0.49,0.52 1.37,0.4 a 0.19,0.19 0 0 0 0.08,-0.34 z m 2.69,1.62 a 0.21,0.21 0 0 0 0.31,-0.24 q -0.14,-0.39 -0.44,-0.48 a 0.26,0.26 0 0 0 -0.22,0.47 z m -2.07,0.73 a 0.49,0.49 0 0 0 -0.49,-0.49 0.49,0.49 0 0 0 -0.49,0.49 0.49,0.49 0 0 0 0.49,0.49 0.49,0.49 0 0 0 0.49,-0.49 z m 1.5,2.84 -1.06,-0.52 a 0.37,0.36 80 0 0 -0.41,0.59 q 0.2,0.22 1.33,0.39 a 0.24041631,0.24041631 0 0 0 0.14,-0.46 z m -0.35,3.7 q 0.51,1.66 0.89,1.63 a 1.19,0.06 -6.3 0 1 0.13,-0.02 q 0.12,-0.02 0.16,-0.17 0.04,-0.12 -0.11,-0.28 -0.54,-0.57 -0.76,-1.26 -0.21,-0.69 -0.08,-1.47 0.04,-0.21 -0.06,-0.29 -0.12,-0.1 -0.23,-0.05 a 1.19,0.06 -27.7 0 1 -0.12,0.06 q -0.33,0.18 0.18,1.85 z m 2.66,0.04 q -0.02,0.14 0.21,0.36 a 0.27,0.23 22.2 0 0 0.45,-0.15 q -0.02,-0.28 -0.33,-0.39 -0.27,-0.11 -0.33,0.18 z m -1.8051,3.0896 a 1.11,0.32 -124.9 0 0 0.3727,1.0935 1.11,0.32 -124.9 0 0 0.8975,0.7273 1.11,0.32 -124.9 0 0 -0.3727,-1.0935 1.11,0.32 -124.9 0 0 -0.8975,-0.7273 z m 2.8751,1.7804 q -0.2,0.38 0.07,0.49 0.54,0.23 1.07,-0.13 0.34,-0.23 0.17,-0.49 a 0.8,0.73 -48 0 0 -1.31,0.13 z m -1.38,1.68 q 0.06,0.43 0.45,0.81 a 0.25,0.25 0 0 0 0.41,-0.25 q -0.19,-0.66 -0.38,-0.82 a 0.29,0.29 0 0 0 -0.48,0.26 z m 2.77,2.02 q 0.32,0.47 0.65,0.92 a 0.36,0.36 0 0 0 0.63,-0.12 q 0.1,-0.39 -0.32,-0.84 -0.17,-0.18 -0.32,-0.4 -0.14,-0.21 -0.25,-0.44 -0.27,-0.55 -0.66,-0.61 a 0.36,0.36 0 0 0 -0.35,0.55 q 0.3,0.47 0.62,0.94 z m -232.1334,-0.5744 a 1.91,0.41 -71.8 0 0 -0.9861,1.6863 1.91,0.41 -71.8 0 0 -0.2071,1.9425 1.91,0.41 -71.8 0 0 0.9861,-1.6863 1.91,0.41 -71.8 0 0 0.2071,-1.9425 z M 351.06,516.64 350.69,515.6 a 0.34,0.33 -56.2 0 0 -0.65,0.13 q 0.04,1.13 0.76,1.23 a 0.24,0.24 0 0 0 0.26,-0.32 z m 1.99,0.74 q -0.13,-0.28 -0.73,-0.27 a 0.37,0.3 -16.7 0 0 -0.34,0.5 q 0.26,0.31 0.78,0.27 a 0.35,0.35 0 0 0 0.29,-0.5 z m -6.48,26.79 c 2.27,-2.21 3.22,-5.41 4.27,-8.91 q 1.74,-5.83 -1.24,-11.18 a 4.01,3.94 6.6 0 0 -0.84,-1.04 q -1.75,-1.53 -2.56,-3.22 a 2.47,2.45 -1.5 0 0 -1.3,-1.22 c -3.62,-1.47 -8.38,-1.93 -11.31,1.66 -3.62,4.43 -5.14,9.47 -3.37,14.83 2.13,6.41 8.03,13.08 15.32,9.77 a 3.76,3.53 9.4 0 0 1.03,-0.69 z m 6.35,-24.32 q 0.05,-0.39 -0.21,-0.61 -0.3,-0.26 -0.46,0.09 -0.12,0.26 0.07,0.57 a 0.34,0.3 36.4 0 0 0.6,-0.05 z m -234.0592,0.6179 a 2.21,0.5 -82.7 0 0 -0.7767,2.1286 2.21,0.5 -82.7 0 0 0.2151,2.2556 2.21,0.5 -82.7 0 0 0.7767,-2.1286 2.21,0.5 -82.7 0 0 -0.2151,-2.2556 z m 235.6306,0.2966 a 1.33,0.6 -125.3 0 0 0.2789,1.4322 1.33,0.6 -125.3 0 0 1.2583,0.7388 1.33,0.6 -125.3 0 0 -0.2789,-1.4322 1.33,0.6 -125.3 0 0 -1.2583,-0.7388 z m 2.1109,4.094 a 1.18,0.36 -121 0 0 0.2991,1.1969 1.18,0.36 -121 0 0 0.9163,0.8261 1.18,0.36 -121 0 0 -0.2991,-1.1969 1.18,0.36 -121 0 0 -0.9163,-0.8261 z M 115.68,525.58 a 0.58,0.58 0 0 0 -0.61,0.49 q -0.76,4.71 -2.96,8.86 -0.21,0.41 -0.17,0.7 0.08,0.52 0.46,0.63 a 0.68,0.66 3.8 0 1 0.47,0.52 c 0.46,2.53 -1.22,2.96 -1.59,4.94 q -0.5,2.66 -1.47,3.22 a 0.96,0.95 -22.1 0 0 -0.45,1.05 c 0.29,1.13 -1.35,3.2 -1.74,4.7 q -1.03,4.03 -2.43,7.93 -1.03,2.84 -0.23,5.5 a 0.47,0.47 0 0 0 0.92,-0.1 q 0.23,-3.39 1.79,-6.23 c 1.13,-2.04 1.36,-3.66 1.51,-6 q 0.24,-3.63 2.33,-6.31 a 3.94,3.91 69.7 0 0 0.77,-1.69 q 0.38,-2 1.28,-4.48 0.79,-2.17 -0.13,-3.51 a 0.39,0.38 -24.6 0 1 0.22,-0.59 q 1.5,-0.38 2.2,-2.28 0.32,-0.86 0.48,-6.67 a 0.66,0.66 0 0 0 -0.62,-0.68 z m 238.44,1.99 q -0.15,-0.48 -0.9,-0.78 a 0.23,0.23 0 0 0 -0.28,0.34 q 0.66,1.03 0.68,1.03 a 0.46,0.45 85.5 0 0 0.5,-0.59 z m -271.71,6.48 a 13.6,10.39 -73.9 0 0 -1.57,12.32 13.59,10.36 -74.1 0 0 5.65,6.85 13.61,10.37 -73.4 0 0 6.43,-0.15 13.6,10.39 -73.9 0 0 7.07,-21.38 13.6,10.39 -73.9 0 0 -8.31,-4.63 13.61,10.39 -73.9 0 0 -9.27,6.99 z m 271.21,-2.61 a 0.54,0.46 -63.3 0 0 0.89,-0.38 q 0.02,-0.72 -0.29,-0.84 -0.49,-0.19 -0.55,0.39 -0.08,0.77 -0.05,0.83 z m 4.58,-0.29 a 0.31,0.31 0 0 0 0.45,-0.4 q -0.11,-0.17 -0.32,-0.38 a 0.25,0.25 0 0 0 -0.41,0.25 q 0.12,0.41 0.28,0.53 z m -255.35,0.23 1.27,6.39 a 0.13,0.13 0 0 0 0.15,0.11 l 0.05,-0.01 a 3.23,1.32 78.8 0 0 0.67,-3.43 l -0.07,-0.31 A 3.23,1.32 78.8 0 0 103,531.22 h -0.05 a 0.13,0.13 0 0 0 -0.1,0.16 z M 354,534.6 a 0.33,0.33 0 0 0 0.63,0.08 q 0.22,-0.56 -0.02,-0.97 a 0.29,0.29 0 0 0 -0.54,0.12 q -0.08,0.75 -0.07,0.77 z m -0.65,3.13 a 0.07158911,0.07158911 0 0 0 0.14,0.03 q 0.2,-0.37 -0.01,-0.46 a 0.09,0.09 0 0 0 -0.12,0.08 z m 6.07,1.05 a 0.22,0.22 0 0 0 0.34,-0.14 q 0.12,-0.63 -0.14,-0.79 a 0.32,0.27 -78.3 0 0 -0.41,0.33 q 0.02,0.46 0.21,0.6 z m -1.77,-0.06 q 0.35,-0.37 0.18,-0.58 a 0.38,0.37 -75 0 0 -0.64,0.38 q 0.03,0.09 0.22,0.23 a 0.19,0.18 -51.3 0 0 0.24,-0.03 z m -6.05,1.77 q 0.3,-0.94 0.19,-1.17 a 0.28,0.28 0 0 0 -0.53,0.04 q -0.37,1.28 -0.35,1.31 a 0.42,0.42 0 0 0 0.69,-0.18 z m -246.9212,-0.6145 a 1.13,0.35 -77.8 0 0 -0.5809,1.0305 1.13,0.35 -77.8 0 0 0.1033,1.1785 1.13,0.35 -77.8 0 0 0.5809,-1.0305 1.13,0.35 -77.8 0 0 -0.1033,-1.1785 z M 359.61,545.42 c 0.36,-0.85 -0.18,-1.64 -1.21,-2.13 q -1.23,-0.58 -0.45,-1.68 0.09,-0.14 0.03,-0.42 -0.11,-0.47 -0.5,-0.54 a 0.29,0.28 3.2 0 0 -0.34,0.3 l 0.19,2.09 a 1.1,1.1 0 0 0 0.66,0.91 q 0.91,0.39 1.16,1.43 a 0.24,0.24 0 0 0 0.46,0.04 z m -9.12,0.87 -2.21,1.08 a 0.42,0.42 0 0 0 -0.09,0.69 l 4.62,4.01 a 0.81,0.81 0 0 0 1.35,-0.62 l -0.05,-3.98 q 0.63,-2.1 0.03,-4 a 0.34,0.34 0 0 0 -0.57,-0.14 z m -246.73,-2.71 q 0.19,0.95 -1.05,1.64 a 0.89,0.88 76.8 0 0 -0.45,0.74 q -0.03,1.43 -1.68,3.34 a 0.17,0.17 0 0 0 0.03,0.25 l 0.23,0.16 a 0.28,0.28 0 0 0 0.39,-0.07 c 0.95,-1.32 1.06,-2.4 2.19,-3.84 q 0.91,-1.16 0.46,-2.26 a 0.06324555,0.06324555 0 0 0 -0.12,0.04 z m 255.51,4.31 q -0.52,-1.16 -1.55,-1.47 a 0.41,0.41 0 0 0 -0.52,0.28 q -0.16,0.57 -0.01,0.89 a 0.51,0.5 -9.5 0 0 0.4,0.28 q 0.81,0.08 1.27,0.38 a 0.29,0.28 -86.1 0 0 0.41,-0.36 z m -269.12,9.46 q -0.71,-1.21 -1.16,-1.13 a 2.22,1.83 80.8 0 0 -1.44,2.47 q 0.66,4.19 0.94,10.81 0.09,2.12 2.03,6.35 a 1.34,1.33 78.2 0 0 1.18,0.78 l 3.35,0.08 a 0.69,0.69 0 0 0 0.62,-0.36 q 1.67,-3.11 1.76,-3.47 1.3,-5.42 2.72,-10.05 a 8.26,8.01 -24.1 0 1 0.51,-1.28 q 2.57,-5 3.97,-11.17 0.16,-0.68 0.96,-2.33 a 0.33,0.32 -64.2 0 0 -0.15,-0.44 l -0.02,-0.01 a 0.33,0.33 0 0 0 -0.42,0.15 q -4.41,8.47 -13.98,8.96 a 0.41,0.41 0 0 0 -0.38,0.33 q -0.02,0.12 -0.03,0.21 a 0.25,0.25 0 0 1 -0.46,0.1 z m 252.52,2.4 0.29,1.45 q 0.16,1.62 0.96,3.04 -0.02,0.58 0.35,0.97 l 1.53,5.47 a 0.63,0.63 0 0 0 0.68,0.46 l 3.42,-0.39 a 2,1.99 28.1 0 0 0.7,-0.21 l 1.34,-0.69 a 0.53,0.53 0 0 0 0.16,-0.82 l -3.09,-3.53 q -0.19,-0.67 0.51,-0.46 l 1.4,1.69 a 0.64,0.64 0 0 0 0.79,0.16 q 2.25,-1.21 2.09,-3.54 0.68,-2.34 0.38,-4.15 l -0.1,-1.45 a 1.23,1.22 18.7 0 0 -0.43,-0.86 l -3.77,-3.29 a 1.62,1.33 -5.7 0 0 -0.24,-0.16 q -2.64,-1.45 -4.33,-3.89 a 0.29025851,0.29025851 0 0 1 0.43,-0.39 l 7.82,6.81 a 0.32,0.32 0 0 0 0.53,-0.24 l 0.03,-1.43 a 1.18,1.17 14.7 0 0 -0.63,-1.07 q -3.25,-1.7 -5.72,-4.75 a 0.67,0.66 -21.2 0 0 -0.58,-0.25 l -3.84,0.35 a 0.55,0.55 0 0 0 -0.31,0.96 l 3.45,3 a 0.21,0.21 0 0 1 -0.17,0.37 q -1.68,-0.21 -2.4,-1.3 -1.9,-2.86 -4.64,-3.71 a 0.39,0.39 0 0 0 -0.48,0.5 z m 14.63,-6.69 q -0.3,0.21 -0.24,0.33 a 1.06,1.05 34.9 0 0 2.02,-0.35 q 0.09,-1.27 -1.32,-2.25 a 0.48,0.48 0 0 0 -0.74,0.27 q -0.05,0.22 0.48,1.19 a 0.63,0.63 0 0 1 -0.2,0.81 z M 98.9926,551.3406 a 0.95,0.39 -42.3 0 0 -0.9651,0.3509 0.95,0.39 -42.3 0 0 -0.4401,0.9279 0.95,0.39 -42.3 0 0 0.9651,-0.3509 0.95,0.39 -42.3 0 0 0.4401,-0.9279 z M 358.44,555.12 q -0.89,1.25 -0.67,1.72 a 0.69,0.67 54.9 0 1 -0.12,0.76 q -1.03,1.09 -0.17,3.38 a 0.53,0.52 -46.1 0 0 0.99,-0.02 c 0.44,-1.31 -0.79,-2.12 0.03,-3.41 q 0.85,-1.35 0.59,-2.31 a 0.37,0.36 55.4 0 0 -0.65,-0.12 z m -0.54,7.8 q 0.05,-0.29 -0.03,-0.52 a 0.35,0.34 -36.1 0 0 -0.6,-0.09 q -0.24,0.33 0.13,0.64 a 0.35,0.23 30.2 0 0 0.5,-0.03 z m -1.02,5.3 q 0.9,-0.78 -0.12,-2.39 a 0.2,0.2 0 0 0 -0.37,0.08 q -0.26,2.13 -0.24,2.17 a 0.48,0.48 0 0 0 0.73,0.14 z m -255.16,7.01 c 0.54,-3.36 3.19,-5.4 2.15,-8.84 a 0.26,0.26 0 0 0 -0.5,0.02 l -0.82,4.24 a 0.87,0.85 -8.1 0 1 -0.46,0.6 q -1.63,0.84 -2.19,2.36 a 0.52,0.51 22.6 0 0 0.27,0.65 q 0.68,0.3 1.16,1.05 a 0.21,0.21 0 0 0 0.39,-0.08 z m 250.4,-8.04 q -0.42,0.32 -0.09,0.77 c 0.57,0.77 1.65,-0.78 0.68,-0.89 q -0.38,-0.04 -0.59,0.12 z m 3.89,23.47 q 0.41,-0.29 0.66,-1.81 a 1.2,1.19 -60.8 0 0 -0.27,-0.97 q -1.72,-1.99 -0.01,-3.55 a 0.67,0.66 -39.6 0 0 0.09,-0.89 l -0.47,-0.63 a 0.63,0.63 0 0 0 -1.14,0.36 l -0.03,0.85 a 0.33,0.33 0 0 1 -0.64,0.09 l -2.38,-7.9 a 1.39,1.37 54.6 0 1 0.2,-1.23 q 0,-0.01 0.06,-0.07 a 0.35,0.35 0 0 0 -0.09,-0.57 q -0.19,-0.1 -0.34,0.06 -0.92,1 -0.51,2.5 1.74,6.2 2.99,13 a 1.21,1.2 -22.9 0 0 1.88,0.76 z M 99.31,577.02 q 0.69,0.55 1.63,-0.22 a 0.28,0.27 30.6 0 0 -0.13,-0.48 q -0.47,-0.08 -0.71,-0.28 -0.24,-0.19 -0.42,-0.63 a 0.28,0.27 47.3 0 0 -0.5,-0.03 q -0.56,1.08 0.13,1.64 z m 255.8,4.82 q 0.19,-0.21 -0.3,-1.72 a 0.29,0.29 0 0 0 -0.53,-0.06 q -0.32,0.54 0.11,1.64 a 0.43,0.43 0 0 0 0.72,0.14 z m -259.54,-0.99 -0.69,-0.12 a 0.2,0.2 0 0 0 -0.24,0.17 l -0.03,0.21 a 17.68,0.52 -80.2 0 0 -2.5,17.51 l 0.06,0.01 a 17.68,0.52 -80.2 0 0 3.52,-17.33 l 0.04,-0.22 a 0.2,0.2 0 0 0 -0.16,-0.23 z"
         id="path674"
         style="fill:#ffffff;fill-opacity:1;stroke:#ffffff;stroke-opacity:1;stroke-width:0.08571838;stroke-dasharray:none;stroke-linejoin:round" />
      <path
         d="m 229.09,66.99 q 0.29,4.64 -1.11,3.29 l -0.1,-5.15 a 0.22,0.22 0 0 1 0.38,-0.16 q 0.82,0.85 0.83,2.02 z"
         id="path675"
         style="fill:#ffffff;fill-opacity:1;stroke:#ffffff;stroke-opacity:1;stroke-width:0.08571838;stroke-dasharray:none;stroke-linejoin:round" />
      <path
         d="m 211.32,64.92 a 0.22,0.22 0 0 1 0.2,0.24 l -0.04,0.4 a 9.66,0.56 -84.7 0 1 -1.45,9.57 l -0.17,-0.02 a 9.66,0.56 -84.7 0 1 0.33,-9.67 l 0.04,-0.4 a 0.22,0.22 0 0 1 0.24,-0.2 z"
         id="path676"
         style="fill:#ffffff;fill-opacity:1;stroke:#ffffff;stroke-opacity:1;stroke-width:0.08571838;stroke-dasharray:none;stroke-linejoin:round" />
      <path
         d="m 222.96,109.53 v 9.49 a 0.48,0.47 5.1 0 1 -0.56,0.46 l -0.28,-0.06 a 0.51,0.51 0 0 1 -0.41,-0.5 l -0.02,-9.88 0.12,-10.3 0.18,-11.49 0.07,-9.54 -0.31,-11.12 q 1.36,-1.19 1.46,1.13 0.2,4.19 -0.53,11.03 -0.37,3.47 0.31,9.24 0.53,4.44 -0.03,21.54 z"
         id="path677"
         style="fill:#ffffff;fill-opacity:1;stroke:#ffffff;stroke-opacity:1;stroke-width:0.08571838;stroke-dasharray:none;stroke-linejoin:round" />
      <rect
         x="-0.33000001"
         y="-4.3800001"
         transform="rotate(-1.1,5167.3829,-10855.494)"
         width="0.66000003"
         height="8.7600002"
         rx="0.31999999"
         id="rect677"
         style="fill:#ffffff;fill-opacity:1;stroke:#ffffff;stroke-opacity:1;stroke-width:0.08571838;stroke-dasharray:none;stroke-linejoin:round" />
      <path
         d="m 235.01,207.07 q -0.6,0.19 -1.19,0.1 -0.52,-0.19 -0.51,-0.89 0.62,-0.2 1.29,-0.05 0.48,0.1 0.41,0.84 z"
         id="path678"
         style="fill:#ffffff;fill-opacity:1;stroke:#ffffff;stroke-opacity:1;stroke-width:0.08571838;stroke-dasharray:none;stroke-linejoin:round" />
      <path
         d="m 193.49,213.95 a 0.31,0.31 0 0 1 -0.3,0.44 q -1.44,-0.06 -1.22,-1.7 a 0.35,0.35 0 0 1 0.59,-0.21 q 0.47,0.44 0.93,1.47 z"
         id="path679"
         style="fill:#ffffff;fill-opacity:1;stroke:#ffffff;stroke-opacity:1;stroke-width:0.08571838;stroke-dasharray:none;stroke-linejoin:round" />
      <path
         d="m 232.9,214.44 a 0.3,0.3 0 0 1 -0.3,0.51 l -2.16,-0.78 a 0.45,0.45 0 0 1 -0.28,-0.58 l 0.12,-0.35 a 0.34,0.34 0 0 1 0.48,-0.18 q 1.6,0.88 2.14,1.38 z"
         id="path680"
         style="fill:#ffffff;fill-opacity:1;stroke:#ffffff;stroke-opacity:1;stroke-width:0.08571838;stroke-dasharray:none;stroke-linejoin:round" />
      <path
         d="m 212.9,218.17 q -0.25,0.52 -0.83,0.52 -0.42,-0.01 -0.56,0.17 -0.18,0.22 -0.24,0.59 l -1.6,2.05 a 0.27,0.26 35.3 0 1 -0.36,0.06 l -0.2,-0.15 a 0.1,0.1 0 0 1 -0.04,-0.11 l 1.04,-2.9 a 0.71,0.7 -84.8 0 1 0.54,-0.46 q 1.26,-0.21 2.43,-1.97 a 0.31,0.3 34 0 1 0.43,-0.08 l 0.36,0.25 a 0.26,0.26 0 0 1 0.04,0.39 q -0.74,0.79 -1.01,1.64 z"
         id="path681"
         style="fill:#ffffff;fill-opacity:1;stroke:#ffffff;stroke-opacity:1;stroke-width:0.08571838;stroke-dasharray:none;stroke-linejoin:round" />
      <path
         d="m 235.42,216.38 q 0.32,0.26 0.34,0.29 a 0.25,0.25 0 0 1 -0.31,0.3 q -0.28,-0.08 -0.4,-0.23 a 0.26,0.26 0 0 1 0.37,-0.36 z"
         id="path682"
         style="fill:#ffffff;fill-opacity:1;stroke:#ffffff;stroke-opacity:1;stroke-width:0.08571838;stroke-dasharray:none;stroke-linejoin:round" />
      <path
         d="m 220.26,219.2 q 0.55,1.28 0.56,1.31 0.13,0.39 -0.14,0.52 a 0.2,0.2 0 0 1 -0.26,-0.09 q -0.06,-0.11 -0.66,-1.53 -0.6,-1.43 -0.64,-1.55 a 0.2,0.2 0 0 1 0.12,-0.24 q 0.28,-0.1 0.47,0.26 0.01,0.03 0.55,1.32 z"
         id="path683"
         style="fill:#ffffff;fill-opacity:1;stroke:#ffffff;stroke-opacity:1;stroke-width:0.08571838;stroke-dasharray:none;stroke-linejoin:round" />
      <path
         d="m 214.97,218.55 q -0.03,0.5 -0.45,0.78 -0.59,-0.52 -0.35,-1.06 0.16,-0.36 0.46,-0.2 0.23,0.12 0.34,0.48 z"
         id="path684"
         style="fill:#ffffff;fill-opacity:1;stroke:#ffffff;stroke-opacity:1;stroke-width:0.08571838;stroke-dasharray:none;stroke-linejoin:round" />
      <path
         d="m 217.32,220.36 q -0.73,-1.13 -0.83,-1.49 -0.15,-0.53 0.31,-0.72 0.31,-0.13 0.51,-0.07 a 0.62,0.62 0 0 1 0.46,0.54 l 0.13,1.54 a 0.32,0.32 0 0 1 -0.58,0.2 z"
         id="path685"
         style="fill:#ffffff;fill-opacity:1;stroke:#ffffff;stroke-opacity:1;stroke-width:0.08571838;stroke-dasharray:none;stroke-linejoin:round" />
      <circle
         cx="222.92999"
         cy="219.37"
         r="0.75999999"
         id="circle685"
         style="fill:#ffffff;fill-opacity:1;stroke:#ffffff;stroke-opacity:1;stroke-width:0.08571838;stroke-dasharray:none;stroke-linejoin:round" />
      <path
         d="m 227.42,224.64 q -2.4,-2.32 -2.71,-4.84 0.53,-0.2 0.84,-0.16 0.36,0.05 0.47,0.65 0.44,2.36 2.18,4.4 a 0.49,0.48 83.4 0 1 -0.59,0.75 q -0.05,-0.02 -0.19,-0.8 z"
         id="path686"
         style="fill:#ffffff;fill-opacity:1;stroke:#ffffff;stroke-opacity:1;stroke-width:0.08571838;stroke-dasharray:none;stroke-linejoin:round" />
      <path
         d="m 222.57,222.1 q -0.26,0.09 -0.66,-0.38 a 0.3,0.3 0 0 1 0,-0.4 q 0.4,-0.46 0.7,-0.35 a 0.6,0.59 -43.4 0 1 -0.04,1.13 z"
         id="path687"
         style="fill:#ffffff;fill-opacity:1;stroke:#ffffff;stroke-opacity:1;stroke-width:0.08571838;stroke-dasharray:none;stroke-linejoin:round" />
      <path
         d="m 226.25,225.88 q -0.21,0.26 -0.86,0.43 -1.46,-1.33 -2.13,-3.25 a 0.2,0.2 0 0 1 0.21,-0.27 q 1.3,0.15 1.28,1.25 a 0.8,0.77 23.9 0 0 0.22,0.54 z"
         id="path688"
         style="fill:#ffffff;fill-opacity:1;stroke:#ffffff;stroke-opacity:1;stroke-width:0.08571838;stroke-dasharray:none;stroke-linejoin:round" />
      <path
         d="m 214.12,223.29 a 0.56,0.46 48.3 0 1 0.98,0.15 q 0.13,0.45 -0.16,0.81 a 0.3,0.3 0 0 1 -0.51,-0.08 q -0.33,-0.81 -0.31,-0.88 z"
         id="path689"
         style="fill:#ffffff;fill-opacity:1;stroke:#ffffff;stroke-opacity:1;stroke-width:0.08571838;stroke-dasharray:none;stroke-linejoin:round" />
      <path
         d="m 218.17,227.44 a 0.68,0.67 65.9 0 1 0.43,-1.13 q 1.9,-0.18 1.68,-1.74 a 0.86,0.83 61.6 0 1 0.18,-0.65 q 0.39,-0.49 0.65,-0.54 a 0.88,0.72 -64.8 0 1 0.38,1.51 q -1.34,1.06 -1.54,3.06 a 0.37,0.37 0 0 0 0.68,0.25 l 1.92,-2.74 a 0.24,0.23 -63.3 0 1 0.26,-0.09 l 0.26,0.07 a 0.48,0.48 0 0 1 0.26,0.71 l -4.35,6.83 a 2.06,2.04 68.6 0 0 -0.25,0.58 l -0.92,3.37 a 0.31,0.31 0 0 1 -0.39,0.22 l -0.29,-0.09 a 0.35,0.35 0 0 1 -0.24,-0.38 q 0.27,-1.71 1.34,-2.85 a 0.57,0.56 51.3 0 0 0.07,-0.68 q -0.46,-0.79 -1.06,-0.42 a 0.07,0.05 -84.8 0 0 -0.03,0.04 l -0.29,0.95 a 0.39,0.38 -43.2 0 1 -0.74,-0.02 q -0.05,-0.2 -0.06,-0.27 -0.03,-0.29 0.03,-0.4 0.42,-0.75 0.82,-1.66 a 0.49,0.49 0 0 1 0.84,-0.1 l 0.71,0.97 a 0.4,0.39 -36.1 0 0 0.55,0.08 l 0.23,-0.17 a 0.09,0.08 -37 0 0 0.02,-0.11 l -1.27,-2.18 a 0.34,0.34 0 0 1 0.43,-0.49 q 0.53,0.23 0.84,0.66 a 0.32,0.32 0 0 0 0.52,-0.01 l 0.26,-0.36 a 0.13,0.12 -51.2 0 0 -0.01,-0.16 z"
         id="path690"
         style="fill:#ffffff;fill-opacity:1;stroke:#ffffff;stroke-opacity:1;stroke-width:0.08571838;stroke-dasharray:none;stroke-linejoin:round" />
      <path
         d="m 209.29,231.55 1.58,-1.96 q 1.32,-2.56 3.62,-4.45 a 0.18,0.18 0 0 1 0.3,0.12 l 0.04,0.28 a 0.12,0.09 -35.8 0 1 -0.02,0.06 l -4.68,6.43 a 0.29,0.28 63 0 1 -0.51,-0.17 q -0.01,-0.56 -0.33,-0.31 z"
         id="path691"
         style="fill:#ffffff;fill-opacity:1;stroke:#ffffff;stroke-opacity:1;stroke-width:0.08571838;stroke-dasharray:none;stroke-linejoin:round" />
      <path
         d="m 216.23,225.8 a 0.06,0.06 0 0 1 0.09,-0.02 l 0.18,0.13 a 0.79,0.78 -55.2 0 1 0.19,1.09 l -3.97,5.7 a 0.79,0.78 -55.2 0 1 -1.09,0.21 l -0.18,-0.13 a 0.06,0.06 0 0 1 -0.01,-0.08 z"
         id="path692"
         style="fill:#ffffff;fill-opacity:1;stroke:#ffffff;stroke-opacity:1;stroke-width:0.08571838;stroke-dasharray:none;stroke-linejoin:round" />
      <path
         d="m 224.91,227.01 q -0.85,2.26 -2.54,3.68 a 1.5,1.41 77.8 0 0 -0.48,0.8 q -0.31,1.39 -1.29,2.7 -0.34,0.04 -0.48,-0.18 -0.14,-0.22 -0.03,-0.48 0.73,-1.83 1.6,-2.84 a 1.6,1.56 -15.8 0 0 0.31,-0.54 q 0.69,-2.01 2.48,-3.33 a 0.26,0.25 47.8 0 1 0.33,0.02 q 0.24,0.2 0.1,0.17 z"
         id="path693"
         style="fill:#ffffff;fill-opacity:1;stroke:#ffffff;stroke-opacity:1;stroke-width:0.08571838;stroke-dasharray:none;stroke-linejoin:round" />
      <path
         d="m 216.3,237.5 q -1.08,-0.15 -1.76,-0.61 l -0.03,-0.36 q 0.55,-0.55 0.6,-1.15 0.04,-0.46 -0.66,-0.99 -0.96,-0.73 -0.03,-2.24 1.27,-2.06 2.73,-4.06 a 0.41,0.41 0 0 1 0.65,-0.02 q 0.08,0.1 -0.18,0.71 -0.25,0.59 -0.91,1.62 -1.75,2.75 -1.75,2.78 a 1.41,1.38 35 0 0 0.18,0.96 q 0.96,1.58 1.16,3.36 z"
         id="path694"
         style="fill:#ffffff;fill-opacity:1;stroke:#ffffff;stroke-opacity:1;stroke-width:0.08571838;stroke-dasharray:none;stroke-linejoin:round" />
      <path
         d="m 225.74,228.26 q 0.12,-0.02 0.24,-0.04 0.23,0.46 0.29,1.1 l -1.83,2.03 a 0.07,0.07 0 0 1 -0.09,0.01 l -0.24,-0.13 a 0.32,0.31 -57.7 0 1 -0.1,-0.45 z"
         id="path695"
         style="fill:#ffffff;fill-opacity:1;stroke:#ffffff;stroke-opacity:1;stroke-width:0.08571838;stroke-dasharray:none;stroke-linejoin:round" />
      <path
         d="m 273.36,280.24 q -0.52,-0.17 -0.89,-0.55 l -1.25,-1.52 a 0.49,0.49 0 0 1 0.63,-0.74 q 2.57,1.53 1.51,2.81 z"
         id="path696"
         style="fill:#ffffff;fill-opacity:1;stroke:#ffffff;stroke-opacity:1;stroke-width:0.08571838;stroke-dasharray:none;stroke-linejoin:round" />
      <path
         d="m 190.93,295.97 q 0.4,0.9 -0.29,1.7 c -0.57,0.65 -0.71,0.96 -0.72,1.77 l -0.15,0.42 a 0.24,0.24 0 0 1 -0.45,0 q -0.94,-2.79 1.61,-3.89 z"
         id="path697"
         style="fill:#ffffff;fill-opacity:1;stroke:#ffffff;stroke-opacity:1;stroke-width:0.08571838;stroke-dasharray:none;stroke-linejoin:round" />
      <path
         d="m 226.68,299.43 q -0.13,0.49 -0.74,0.64 a 0.36,0.36 0 0 1 -0.44,-0.46 q 0.15,-0.45 0.89,-0.51 a 0.27,0.27 0 0 1 0.29,0.33 z"
         id="path698"
         style="fill:#ffffff;fill-opacity:1;stroke:#ffffff;stroke-opacity:1;stroke-width:0.08571838;stroke-dasharray:none;stroke-linejoin:round" />
      <path
         d="m 226.49,310.49 q -0.21,0.47 -0.5,0.57 -2.02,-0.8 -1.55,-2.44 a 1.42,1.41 -49.3 0 0 -0.07,-0.99 q -0.42,-0.94 -0.21,-2.34 a 0.32,0.32 0 0 1 0.57,-0.14 l 0.74,0.99 a 0.23,0.23 0 0 0 0.41,-0.07 q 0.24,-0.86 0.2,-1.03 -0.14,-0.5 -0.67,-0.63 -1,-0.24 -0.56,-1.75 a 0.75,0.75 0 0 1 0.66,-0.53 q 2.15,-0.17 2.85,1.35 a 0.24,0.24 0 0 0 0.46,-0.1 q 0.04,-1.21 -1.41,-1.96 a 0.74,0.73 -68.9 0 1 -0.37,-0.85 q 0.12,-0.41 0.79,-0.8 a 0.58,0.57 58.1 0 1 0.76,0.18 q 1.58,2.31 1.32,4.62 c -0.22,1.98 1.01,3.98 -0.23,5.6 a 0.4,0.39 -70.5 0 0 0.3,0.64 l 1.11,0.03 a 0.64,0.64 0 0 1 0.46,1.07 q -0.18,0.2 -0.75,0.77 -0.35,0.34 -0.65,0.15 -0.27,-0.17 -0.37,-0.33 -0.15,-0.24 -0.41,-0.17 -0.28,0.08 -0.28,0.68 a 0.38,0.38 0 0 1 -0.25,0.36 q -0.28,0.09 -0.29,0.08 -0.46,-0.4 -0.24,-1.08 1.13,-3.58 -0.02,-5.6 a 1.29,1.29 0 0 1 -0.17,-0.71 q 0.07,-0.93 -0.27,-1.64 -0.34,-0.69 -1.27,-1.23 -0.33,-0.18 -0.41,-0.13 -0.19,0.14 -0.09,0.46 0.76,2.62 1.47,3.22 a 1.87,1.82 21.1 0 1 0.47,1.02 l 0.25,2.21 a 0.2,0.2 0 0 1 -0.24,0.22 l -0.64,-0.13 a 0.3,0.28 -5.7 0 1 -0.2,-0.15 q -0.5,-1.12 -0.32,-2.26 a 0.51,0.51 0 0 0 -0.49,-0.59 l -0.31,-0.01 a 0.36,0.36 0 0 0 -0.37,0.39 q 0.09,1.55 0.79,3.05 z"
         id="path699"
         style="fill:#ffffff;fill-opacity:1;stroke:#ffffff;stroke-opacity:1;stroke-width:0.08571838;stroke-dasharray:none;stroke-linejoin:round" />
      <path
         d="m 187.73,302.36 q 0.38,1.2 -0.02,1.87 a 0.58,0.54 -34.6 0 1 -1.05,-0.16 q -0.07,-0.55 0.53,-1.75 a 0.29,0.29 0 0 1 0.54,0.04 z"
         id="path700"
         style="fill:#ffffff;fill-opacity:1;stroke:#ffffff;stroke-opacity:1;stroke-width:0.08571838;stroke-dasharray:none;stroke-linejoin:round" />
      <path
         d="m 186.95,306.22 q 0.59,2.07 -0.5,3.62 -1.35,-2.05 -0.34,-4.05 a 0.39,0.39 0 0 1 0.71,0.05 z"
         id="path701"
         style="fill:#ffffff;fill-opacity:1;stroke:#ffffff;stroke-opacity:1;stroke-width:0.08571838;stroke-dasharray:none;stroke-linejoin:round" />
      <path
         d="m 185.9,311.53 -0.47,0.66 q -0.3,0.99 -0.85,1.45 a 0.43,0.42 68.2 0 1 -0.69,-0.3 q -0.04,-0.62 0.49,-1.21 a 1,0.99 -41.1 0 0 0.09,-1.22 q -0.78,-1.17 -0.38,-2.31 a 0.37,0.37 0 0 1 0.7,0 z"
         id="path702"
         style="fill:#ffffff;fill-opacity:1;stroke:#ffffff;stroke-opacity:1;stroke-width:0.08571838;stroke-dasharray:none;stroke-linejoin:round" />
      <path
         d="m 226.09,316.71 -0.32,6.34 a 0.33,0.33 0 0 1 -0.65,0.07 q -0.31,-1.08 -0.29,-2.69 0.26,-1.65 -0.07,-3.25 a 0.53,0.52 73.4 0 0 -0.7,-0.38 q -0.1,0.04 -0.14,0.22 -0.03,0.11 -0.33,0.03 -0.35,-0.1 -0.46,-0.42 a 0.38,0.36 64.2 0 1 0.13,-0.4 q 1.45,-1.15 0.58,-2.41 a 1.02,0.97 34.1 0 1 -0.16,-0.73 l 0.21,-1.07 a 0.27,0.27 0 0 1 0.32,-0.22 l 0.35,0.07 a 0.22,0.22 0 0 1 0.16,0.29 q -1.12,2.97 1.37,4.55 z"
         id="path703"
         style="fill:#ffffff;fill-opacity:1;stroke:#ffffff;stroke-opacity:1;stroke-width:0.08571838;stroke-dasharray:none;stroke-linejoin:round" />
      <path
         d="m 275.9,322.93 c -2.6,3.75 -6.54,2.3 -8.69,-1.09 -4.04,-6.35 5.55,-11.08 9.13,-5.27 q 1.36,2.21 0.19,4.95 a 0.09340771,0.09340771 0 0 1 -0.18,-0.05 q 0.01,-0.05 0.15,-0.34 a 0.98,0.97 -43.1 0 0 0.03,-0.79 c -0.98,-2.51 -3.76,-6.1 -6.85,-4.88 -2.96,1.17 -3.74,5.03 -1.13,6.78 q 1.79,1.21 4.24,2.13 a 0.9,0.89 -52.5 0 0 0.86,-0.12 l 2.04,-1.51 a 0.15,0.14 -1.9 0 1 0.21,0.19 z"
         id="path704"
         style="fill:#ffffff;fill-opacity:1;stroke:#ffffff;stroke-opacity:1;stroke-width:0.08571838;stroke-dasharray:none;stroke-linejoin:round" />
      <path
         d="m 223.91,318.39 q 0.17,0.49 -0.02,1.52 a 0.34,0.34 0 0 1 -0.6,0.15 q -0.61,-0.8 -0.34,-1.51 a 0.57,0.46 -48.2 0 1 0.96,-0.16 z"
         id="path705"
         style="fill:#ffffff;fill-opacity:1;stroke:#ffffff;stroke-opacity:1;stroke-width:0.08571838;stroke-dasharray:none;stroke-linejoin:round" />
      <path
         d="m 180.84,325.23 a 0.64,0.44 81.2 0 1 -0.42,0.87 q -0.28,-0.07 -0.52,-0.78 -0.1,-0.3 0.33,-0.41 0.45,-0.12 0.61,0.32 z"
         id="path706"
         style="fill:#ffffff;fill-opacity:1;stroke:#ffffff;stroke-opacity:1;stroke-width:0.08571838;stroke-dasharray:none;stroke-linejoin:round" />
      <path
         d="m 181.3,327.14 q 0.38,0.75 -0.56,2.33 a 0.46,0.45 55.1 0 1 -0.84,-0.15 q -0.13,-0.72 0.7,-2.19 a 0.4,0.4 0 0 1 0.7,0.01 z"
         id="path707"
         style="fill:#ffffff;fill-opacity:1;stroke:#ffffff;stroke-opacity:1;stroke-width:0.08571838;stroke-dasharray:none;stroke-linejoin:round" />
      <path
         d="m 228.02,340.7 -0.91,-1.24 -0.47,-6.79 a 2.49,2.46 51.8 0 1 0.1,-0.88 q 0.49,-1.63 -0.1,-2.94 a 0.59,0.57 -47.1 0 1 -0.01,-0.45 q 0.14,-0.35 0.55,-0.49 a 0.37,0.37 0 0 1 0.48,0.44 l -0.25,1.01 a 0.75,0.74 -79.4 0 0 0.62,0.91 q 0.09,0.03 0.2,0.04 a 0.29,0.29 0 0 1 0.11,0.52 q -0.59,0.38 -0.39,0.95 c 0.55,1.52 0.05,4.75 -0.1,7.18 a 1.59,1.55 -59.7 0 0 0.23,0.92 q 0.54,0.88 -0.06,0.82 z"
         id="path708"
         style="fill:#ffffff;fill-opacity:1;stroke:#ffffff;stroke-opacity:1;stroke-width:0.08571838;stroke-dasharray:none;stroke-linejoin:round" />
      <path
         d="m 224.96,335.76 q -0.77,-0.72 -0.28,-1.82 a 0.78,0.76 -53.6 0 0 -0.11,-0.8 q -1.05,-1.3 -0.39,-3.25 0.75,0.74 0.85,2.3 a 0.96,0.93 14.3 0 0 0.46,0.75 q 0.58,0.34 -0.04,1.23 a 0.67,0.66 50.6 0 0 -0.06,0.66 q 0.1,0.2 0.18,0.29 0.07,0.08 0.04,0.26 -0.08,0.41 -0.65,0.38 z"
         id="path709"
         style="fill:#ffffff;fill-opacity:1;stroke:#ffffff;stroke-opacity:1;stroke-width:0.08571838;stroke-dasharray:none;stroke-linejoin:round" />
      <path
         d="m 179.82,330.69 q 0.16,2.52 0.01,2.95 a 0.39,0.39 0 0 1 -0.76,-0.08 q -0.2,-1.63 0.37,-2.94 a 0.2,0.2 0 0 1 0.38,0.07 z"
         id="path710"
         style="fill:#ffffff;fill-opacity:1;stroke:#ffffff;stroke-opacity:1;stroke-width:0.08571838;stroke-dasharray:none;stroke-linejoin:round" />
      <path
         d="m 230.79,333.63 q -0.95,1.72 -0.95,3.89 -0.68,0.17 -0.7,-0.52 -0.23,-5.46 1.65,-3.37 z"
         id="path711"
         style="fill:#ffffff;fill-opacity:1;stroke:#ffffff;stroke-opacity:1;stroke-width:0.08571838;stroke-dasharray:none;stroke-linejoin:round" />
      <path
         d="m 290.53,333.43 q 0.82,0.45 1.03,0.85 a 0.33,0.33 0 0 1 -0.48,0.42 q -0.48,-0.33 -0.55,-1.27 z"
         id="path712"
         style="fill:#ffffff;fill-opacity:1;stroke:#ffffff;stroke-opacity:1;stroke-width:0.08571838;stroke-dasharray:none;stroke-linejoin:round" />
      <ellipse
         cx="0"
         cy="0"
         transform="rotate(-88.4,283.93249,119.73131)"
         rx="1.99"
         ry="0.61000001"
         id="ellipse713"
         style="fill:#ffffff;fill-opacity:1;stroke:#ffffff;stroke-opacity:1;stroke-width:0.08571838;stroke-dasharray:none;stroke-linejoin:round" />
      <ellipse
         cx="0"
         cy="0"
         transform="rotate(-83.6,306.09779,119.42164)"
         rx="2.5699999"
         ry="0.55000001"
         id="ellipse714"
         style="fill:#ffffff;fill-opacity:1;stroke:#ffffff;stroke-opacity:1;stroke-width:0.08571838;stroke-dasharray:none;stroke-linejoin:round" />
      <ellipse
         cx="0"
         cy="0"
         transform="rotate(-85.5,322.06064,162.91427)"
         rx="1.29"
         ry="0.52999997"
         id="ellipse715"
         style="fill:#ffffff;fill-opacity:1;stroke:#ffffff;stroke-opacity:1;stroke-width:0.08571838;stroke-dasharray:none;stroke-linejoin:round" />
      <path
         d="m 90.76,537.21 q 0.99,-0.16 1.67,0.05 a 1.26,1.22 -5.1 0 1 0.73,0.59 c 1.15,2.08 1.38,4.55 -1.29,5.48 q -2.37,1.24 -3.63,-1.13 -0.1,-0.2 -0.12,-0.84 a 0.06,0.05 51.1 0 0 -0.1,-0.02 q -0.01,0.14 0.03,0.2 a 0.15,0.05 25.9 0 1 -0.21,-0.03 q -0.72,-0.5 -0.38,-1.42 0.87,-2.39 3.3,-2.88 z m -1.41,3.12 q 0.08,0.06 2.08,0.11 a 0.54,0.54 0 0 0 0.56,-0.52 q 0.08,-2.14 -2.59,-0.71 a 0.65,0.65 0 0 0 -0.05,1.12 z"
         id="path715"
         style="fill:#ffffff;fill-opacity:1;stroke:#ffffff;stroke-opacity:1;stroke-width:0.08571838;stroke-dasharray:none;stroke-linejoin:round" />
      <path
         d="m 351.92,564.28 q 0.01,0.16 0.05,0.3 0.04,0.16 0.18,0.23 0.25,0.12 0.57,-0.01 -1.99,1.88 -2.4,-1.04 a 1.26,1.25 -78.6 0 0 -0.61,-0.92 q -0.99,-0.6 -1.1,-1.66 a 1.28,1.26 16.8 0 0 -0.48,-0.88 l -5.7,-4.54 a 0.29,0.28 -56.3 0 1 -0.07,-0.37 l 0.11,-0.18 a 0.04,0.04 0 0 1 0.06,-0.01 l 6.53,4.21 a 1.05,1.02 -81.1 0 1 0.44,0.62 q 0.36,1.5 1.15,2.12 a 0.67,0.67 0 0 1 0.21,0.8 q -0.4,0.95 0.36,1.78 0.22,0.23 0.48,0.02 0.19,-0.15 0.22,-0.47 z"
         id="path716"
         style="fill:#ffffff;fill-opacity:1;stroke:#ffffff;stroke-opacity:1;stroke-width:0.08571838;stroke-dasharray:none;stroke-linejoin:round" />
      <path
         d="m 348.81,566.94 q 0.79,1.42 1.96,2.03 a 0.28,0.28 0 0 1 0.04,0.48 l -0.32,0.24 a 0.22,0.21 74 0 1 -0.34,-0.19 q 0.03,-0.38 -0.43,-0.54 a 0.48,0.47 14.3 0 0 -0.63,0.37 q -0.1,0.6 -0.53,0.8 a 0.38,0.38 0 0 1 -0.53,-0.45 q 0.16,-0.53 0.65,-0.64 a 0.57,0.56 79.7 0 0 0.43,-0.64 q -0.08,-0.45 -0.59,-0.93 0.04,-0.3 0.29,-0.53 z"
         id="path717"
         style="fill:#ffffff;fill-opacity:1;stroke:#ffffff;stroke-opacity:1;stroke-width:0.08571838;stroke-dasharray:none;stroke-linejoin:round" />
      <path
         d="m 347.19,567.8 q 0.4,0.06 0.66,0.22 a 0.51,0.51 0 0 1 -0.22,0.94 q -0.9,0.08 -0.54,1.04 a 0.4,0.39 -77.8 0 1 -0.65,0.42 q -0.45,-0.46 -0.36,-0.96 0.05,-0.29 0.43,-0.35 0.35,-0.05 0.26,-0.42 -0.1,-0.41 -0.78,-0.7 l -0.03,-0.45 a 0.31,0.31 0 0 1 0.49,-0.27 z"
         id="path718"
         style="fill:#ffffff;fill-opacity:1;stroke:#ffffff;stroke-opacity:1;stroke-width:0.08571838;stroke-dasharray:none;stroke-linejoin:round" />
    </g>
  </g>
</svg>
